<?xml version="1.0" encoding="UTF-8" standalone="no"?>
<svg
   xmlns:dc="http://purl.org/dc/elements/1.1/"
   xmlns:cc="http://creativecommons.org/ns#"
   xmlns:rdf="http://www.w3.org/1999/02/22-rdf-syntax-ns#"
   xmlns:svg="http://www.w3.org/2000/svg"
   xmlns="http://www.w3.org/2000/svg"
   id="svg10"
   preserveAspectRatio="xMidYMid meet"
   viewBox="0 0 398.000000 398.000000"
   height="398.000000pt"
   width="398.000000pt"
   version="1.0">
  <defs
     id="defs14" />
  <metadata
     id="metadata2">
Created by potrace 1.15, written by Peter Selinger 2001-2017
<rdf:RDF>
  <cc:Work
     rdf:about="">
    <dc:format>image/svg+xml</dc:format>
    <dc:type
       rdf:resource="http://purl.org/dc/dcmitype/StillImage" />
    <dc:title></dc:title>
  </cc:Work>
</rdf:RDF>
</metadata>
  <g
     style="fill:#ffffff"
     id="g8"
     stroke="none"
     fill="#000000"
     transform="translate(0.000000,398.000000) scale(0.100000,-0.100000)">
    <path
       style="fill:#ffffff"
       id="path4"
       d="M1725 3475 c-136 -36 -229 -90 -317 -183 -62 -64 -97 -127 -123 -217 -22 -74 -15 -223 15 -335 11 -41 20 -76 20 -77 0 -2 -15 -3 -34 -3 -26 0 -40 -7 -56 -27 -19 -24 -21 -37 -18 -93 9 -132 88 -259 181 -289 31 -11 39 -20 56 -67 42 -112 114 -195 228 -263 35 -21 61 -41 56 -44 -14 -9 -164 -45 -238 -58 -149 -25 -177 -67 -195 -299 -13 -168 -15 -177 -41 -185 -19 -6 -21 -12 -15 -49 3 -22 9 -52 13 -66 l7 -25 -38 31 -38 30 -116 -33 c-64 -19 -118 -36 -120 -38 -2 -2 1 -18 7 -36 20 -57 16 -59 -68 -27 l-79 30 -69 -48 c-37 -26 -72 -50 -76 -54 -4 -4 4 -63 18 -131 33 -159 33 -157 57 -170 20 -11 21 -9 15 30 -3 22 -3 41 -1 41 2 0 13 -17 24 -37 15 -29 19 -32 15 -13 -37 183 -45 225 -45 244 0 15 14 29 48 48 l49 27 38 -182 c21 -100 40 -185 42 -190 7 -12 163 76 163 91 0 8 -16 79 -35 159 -19 80 -35 151 -35 159 0 10 66 36 125 47 5 1 13 -14 17 -33 4 -19 48 -211 98 -427 49 -215 90 -395 90 -400 0 -4 -24 -25 -54 -45 l-53 -37 -11 32 c-8 27 -10 29 -11 8 -1 -19 -4 -21 -15 -12 -8 7 -25 9 -41 5 -25 -6 -26 -5 -16 14 16 31 15 32 -36 26 -45 -5 -47 -4 -29 10 11 9 26 16 33 16 22 0 40 23 35 42 -5 21 8 24 26 6 6 -6 14 -9 18 -6 5 5 -62 257 -71 266 -6 6 -147 -52 -151 -63 -3 -6 13 -87 35 -180 22 -93 38 -172 35 -176 -10 -16 -117 -70 -124 -62 -4 4 -27 109 -50 233 -23 124 -47 234 -53 245 -10 19 -11 19 -22 -8 -13 -32 -25 -25 -25 15 0 27 -13 37 -24 20 -4 -7 111 -622 118 -629 1 -2 71 29 154 67 84 39 156 70 161 70 5 0 15 -15 22 -34 l14 -34 125 70 c69 39 206 113 305 165 l180 96 170 -17 c284 -28 275 -27 275 -46 0 -20 6 -22 153 -46 102 -16 115 -21 235 -89 70 -40 145 -78 167 -85 60 -20 151 -16 218 10 219 84 438 510 396 771 -19 119 -87 227 -170 270 -46 23 -153 26 -221 5 l-45 -13 30 111 c18 70 31 144 33 198 3 70 9 99 29 138 18 36 23 55 16 67 -6 12 -2 26 19 52 16 20 36 55 45 78 13 33 33 55 87 93 75 55 87 72 68 95 -18 22 -49 18 -95 -10 -22 -13 -44 -25 -48 -25 -4 0 15 28 43 61 60 72 66 112 16 117 -24 3 -36 -6 -78 -53 -28 -31 -52 -54 -54 -52 -2 2 10 42 26 90 34 96 30 127 -15 127 -30 0 -47 -25 -82 -119 -23 -65 -28 -72 -34 -51 -4 14 -7 51 -8 82 -1 82 -14 108 -50 108 -43 0 -52 -24 -45 -112 7 -75 -9 -188 -26 -188 -5 0 -19 13 -31 30 -42 56 -127 76 -143 33 -5 -11 6 -29 34 -58 25 -26 45 -59 55 -90 8 -28 25 -66 38 -85 20 -28 22 -37 11 -45 -7 -5 -17 -37 -20 -70 -5 -43 -13 -66 -29 -81 -13 -12 -33 -49 -45 -83 -17 -45 -26 -59 -34 -51 -6 6 -56 70 -111 142 -109 143 -133 162 -229 178 -31 5 -88 19 -127 32 -61 19 -71 20 -79 8 -6 -8 -10 -10 -10 -5 0 6 23 28 50 49 83 63 187 182 220 251 19 40 35 94 42 147 10 77 14 85 47 114 20 18 49 56 64 86 47 92 39 266 -13 313 -21 19 -64 24 -92 11 -16 -7 -18 0 -18 82 0 300 -145 497 -416 566 -76 20 -249 20 -319 1z m317 -40 c83 -21 173 -70 233 -126 99 -93 144 -219 145 -396 l0 -91 -64 -4 c-58 -3 -68 0 -97 24 -44 37 -84 43 -160 23 -77 -19 -109 -39 -109 -65 0 -26 21 -25 88 0 33 13 74 20 115 19 l62 -1 -110 -22 c-138 -29 -149 -32 -183 -60 -39 -34 -84 -41 -124 -20 -27 14 -50 16 -148 11 -63 -4 -126 -9 -140 -12 -23 -6 -23 -5 5 12 24 14 51 18 129 18 57 0 101 4 103 10 11 37 -78 61 -166 45 -55 -10 -105 -44 -116 -79 -5 -18 -134 -56 -145 -44 -16 18 -43 154 -48 241 -8 157 42 282 154 381 155 137 367 187 576 136z m520 -675 c27 -54 24 -171 -6 -235 -13 -27 -35 -61 -50 -74 -23 -22 -26 -23 -26 -6 0 10 10 30 23 44 12 14 15 20 6 13 -14 -11 -17 -2 -22 79 -4 50 -4 96 0 102 11 17 33 -24 33 -62 0 -27 3 -32 10 -21 12 18 4 66 -17 98 -13 22 -13 26 8 48 13 14 17 24 10 24 -7 0 -21 -10 -32 -22 l-18 -23 -1 31 c0 38 7 46 40 42 17 -2 30 -14 42 -38z m-191 -9 c20 -16 24 -28 24 -85 0 -60 -3 -69 -25 -86 -30 -23 -91 -39 -175 -47 -92 -8 -132 2 -155 40 -25 41 -25 50 0 37 14 -7 47 -7 112 1 130 15 136 17 148 39 8 16 5 25 -18 51 -23 26 -38 32 -87 38 l-60 7 60 8 c33 4 65 9 70 11 30 10 85 3 106 -14z m-579 -88 c10 -9 18 -23 18 -31 0 -12 -6 -10 -25 8 -72 67 -265 13 -265 -75 0 -31 43 -49 84 -36 17 6 62 15 101 21 38 6 78 19 89 28 18 16 19 16 13 -23 -11 -72 -72 -98 -231 -99 l-100 -1 -22 32 c-30 45 -39 111 -18 134 30 33 135 55 268 58 52 1 74 -3 88 -16z m-465 -72 l14 -33 -36 22 c-40 25 -47 18 -11 -11 22 -17 23 -23 15 -53 -7 -25 -6 -44 5 -68 l14 -33 -5 42 c-6 49 3 81 18 66 6 -6 16 -39 24 -74 7 -35 16 -77 20 -93 7 -26 6 -27 -14 -17 -11 7 -21 9 -21 7 0 -3 14 -12 30 -21 17 -9 30 -22 30 -31 0 -13 -3 -13 -27 0 -72 37 -142 164 -143 256 0 78 61 106 87 41z m630 24 c12 -8 31 -43 43 -80 12 -36 25 -67 30 -70 4 -3 6 3 4 12 -5 16 6 18 113 19 179 1 273 32 292 97 8 27 9 19 10 -48 1 -110 -7 -153 -31 -161 -15 -4 -17 -9 -7 -20 6 -7 16 -11 23 -7 6 4 5 -1 -3 -10 -7 -9 -18 -14 -25 -10 -6 3 -2 -4 9 -18 16 -18 16 -21 2 -10 -22 18 -33 8 -13 -12 13 -13 13 -16 2 -20 -8 -3 -17 1 -20 9 -3 8 -11 14 -17 14 -8 0 -8 -4 1 -15 11 -13 10 -14 -1 -10 -8 3 -22 -7 -34 -25 -11 -16 -33 -36 -50 -44 -29 -15 -30 -14 -39 12 -24 75 -65 86 -191 52 -42 -11 -117 -23 -168 -26 -144 -8 -155 -11 -178 -47 -11 -18 -17 -41 -14 -54 5 -20 2 -21 -22 -13 -52 16 -93 34 -93 42 0 4 -9 5 -20 3 -15 -3 -20 2 -20 17 0 12 -3 19 -6 15 -4 -3 -15 4 -25 16 -20 24 -25 9 -8 -26 10 -22 10 -22 -10 0 -12 15 -17 31 -13 45 3 12 1 19 -5 15 -9 -6 -56 123 -68 188 l-6 30 16 -27 c30 -54 142 -59 308 -16 101 26 116 39 130 113 10 47 17 62 37 72 32 16 41 16 67 -2z m1015 -386 c3 -24 7 -70 7 -101 1 -64 8 -88 25 -88 15 0 37 39 70 125 35 92 42 103 57 88 9 -9 3 -37 -27 -122 -31 -90 -36 -113 -25 -123 10 -11 27 2 86 67 57 62 76 77 85 68 10 -9 -4 -31 -59 -99 -92 -111 -85 -128 29 -66 87 47 90 48 90 28 0 -7 -30 -33 -66 -57 -58 -37 -70 -51 -94 -104 -15 -33 -36 -68 -47 -78 -19 -17 -22 -16 -67 4 -26 11 -71 23 -100 26 -49 5 -55 9 -79 46 -15 22 -33 64 -42 93 -10 35 -26 62 -50 83 -41 36 -43 41 -11 41 24 0 100 -53 90 -63 -3 -3 9 -13 28 -22 48 -25 86 -64 93 -96 7 -30 25 -40 25 -14 0 25 -28 72 -55 94 -24 18 -25 23 -16 58 6 21 11 86 11 144 0 58 3 109 7 113 15 14 28 -3 35 -45z m-784 -87 c-5 -56 -29 -87 -76 -103 -29 -10 -38 -8 -62 9 -36 27 -92 20 -115 -14 -12 -19 -24 -24 -56 -24 -22 0 -49 5 -60 10 -22 12 -49 61 -49 89 0 19 4 20 58 15 73 -8 193 9 279 39 38 14 72 25 77 26 5 0 6 -21 4 -47z m-416 -348 c23 -25 63 -56 89 -69 85 -44 223 -53 290 -19 34 17 52 40 65 83 l11 36 8 -28 c11 -42 -14 -97 -55 -122 -29 -17 -52 -20 -140 -20 -97 0 -110 2 -172 32 -80 38 -180 129 -157 144 8 5 15 9 16 9 2 0 22 -21 45 -46z m140 29 c25 -3 84 0 129 7 60 8 84 9 87 1 2 -6 15 -11 28 -11 32 0 32 -33 0 -65 -61 -61 -241 -39 -335 41 l-34 29 24 6 c13 4 31 5 39 2 8 -2 36 -7 62 -10z m-181 -64 l59 -61 -55 -80 c-30 -44 -55 -87 -55 -95 0 -14 -3 -14 -24 0 -22 15 -25 15 -30 1 -3 -9 -6 -26 -6 -39 0 -21 -14 -28 -150 -73 l-149 -50 4 26 c3 15 9 85 15 156 11 139 22 172 73 210 35 26 104 27 141 3 14 -10 38 -17 53 -17 l28 0 -28 28 -28 27 43 12 c24 6 45 11 47 12 2 1 30 -26 62 -60z m637 22 c56 -12 91 -26 109 -42 14 -13 71 -85 127 -159 l101 -135 -18 -70 c-22 -87 -25 -161 -8 -204 15 -35 48 -40 43 -6 -14 90 -13 118 7 196 32 125 70 221 99 247 22 21 31 23 71 17 55 -8 116 -38 125 -60 17 -45 -1 -164 -50 -334 l-16 -53 -135 -65 -135 -65 -31 31 -31 30 13 103 c7 57 15 113 17 124 5 20 0 22 -63 28 -110 11 -103 4 -103 109 0 51 -3 102 -6 115 -9 32 -38 24 -42 -10 -3 -26 -8 -23 -90 63 -71 75 -88 99 -93 131 -5 33 -3 38 10 33 9 -4 53 -15 99 -24z m638 -37 c23 -8 49 -23 58 -33 16 -18 16 -22 -5 -63 -12 -23 -22 -44 -24 -46 -1 -1 -22 6 -46 17 -24 10 -63 22 -86 26 l-43 7 0 53 c0 43 4 54 18 58 24 6 80 -2 128 -19z m-658 -179 c68 -78 102 -131 102 -159 0 -14 -4 -26 -8 -26 -5 0 -69 -99 -143 -219 -108 -177 -135 -214 -137 -193 -1 15 -6 106 -10 202 l-7 175 -27 3 c-35 4 -37 -18 -8 -66 25 -41 26 -65 0 -32 -10 14 -21 23 -23 20 -6 -6 -29 -641 -24 -647 2 -2 44 -10 93 -19 49 -9 90 -16 90 -17 7 -7 -13 -122 -21 -122 -5 0 -78 6 -162 14 l-152 13 -3 102 c-2 55 -4 250 -3 431 l0 330 47 5 c26 3 49 8 52 11 3 3 -18 18 -47 34 -43 23 -60 27 -90 21 l-37 -7 -1 -77 0 -77 -56 111 -56 112 63 94 64 94 50 -18 c28 -9 64 -17 79 -18 18 0 46 -15 78 -42 27 -22 51 -39 53 -37 2 2 15 23 30 47 15 23 37 47 50 52 13 5 27 14 31 20 8 13 68 -39 133 -115z m-648 -240 c7 -36 11 -67 9 -69 -2 -2 -61 -22 -131 -45 -144 -48 -135 -37 -118 -150 10 -71 13 -76 35 -67 15 5 15 7 1 22 -9 8 -16 23 -16 32 0 12 7 9 29 -12 27 -26 32 -27 65 -16 44 14 56 7 56 -30 0 -35 13 -45 30 -25 14 17 40 20 40 6 0 -5 -14 -21 -31 -34 -31 -24 -31 -25 -13 -43 11 -11 31 -27 44 -37 20 -14 21 -17 5 -12 -11 4 -35 9 -52 12 -28 5 -33 3 -33 -14 0 -10 5 -24 12 -31 9 -9 8 -12 -5 -12 -15 0 -21 11 -19 32 2 8 -28 32 -29 24 -7 -31 -31 -76 -42 -76 -9 0 -7 21 8 82 6 24 5 26 -14 21 -12 -3 -21 -10 -21 -17 0 -16 49 -288 52 -292 3 -3 180 32 211 42 15 5 17 -2 17 -54 l0 -59 -166 -47 c-92 -26 -169 -45 -171 -42 -6 6 -23 103 -102 566 -27 162 -49 296 -47 297 3 3 366 111 377 112 4 1 12 -28 19 -64z m861 -41 c3 -1 -5 -101 -17 -221 -13 -120 -23 -231 -23 -248 0 -28 1 -28 9 -7 14 34 34 28 26 -9 -5 -24 -3 -30 8 -26 8 3 31 9 52 13 48 9 39 -7 -18 -31 -24 -11 -44 -20 -46 -21 -2 -1 2 -11 9 -23 16 -24 5 -39 -15 -22 -22 18 -33 6 -40 -39 -3 -22 -9 -58 -12 -80 l-6 -41 97 -45 97 -45 -7 -42 c-4 -23 -10 -45 -14 -50 -6 -5 -294 59 -310 70 -3 2 22 192 44 343 13 85 75 526 75 533 0 8 75 0 91 -9z m673 -167 c76 -22 126 -101 126 -196 0 -37 11 -45 36 -26 36 28 38 15 2 -22 -42 -45 -62 -123 -31 -124 15 0 14 -2 -3 -9 -28 -11 -51 -89 -35 -118 15 -29 14 -37 -4 -22 -19 16 -16 19 -55 -60 -122 -246 -289 -378 -412 -327 -50 21 -70 64 -76 158 -9 154 43 428 108 566 28 62 105 154 145 175 52 29 115 30 199 5z" />
    <path
       style="fill:#ffffff"
       id="path6"
       d="M3081 973 c-63 -32 -104 -122 -147 -323 -39 -189 -31 -270 29 -270 38 0 130 109 166 195 48 115 47 109 28 102 -21 -8 -22 1 -1 24 15 16 13 17 -23 8 -67 -15 -69 -9 -10 23 l59 32 -75 38 c-99 49 -106 65 -15 32 50 -18 73 -23 76 -15 3 9 8 9 17 1 18 -15 23 -3 31 61 5 48 3 56 -18 76 -33 31 -76 37 -117 16z" />
  </g>
</svg>
