<?xml version="1.0" standalone="no"?>
<!DOCTYPE svg PUBLIC "-//W3C//DTD SVG 20010904//EN"
 "http://www.w3.org/TR/2001/REC-SVG-20010904/DTD/svg10.dtd">
<svg version="1.0" xmlns="http://www.w3.org/2000/svg"
 width="398.000000pt" height="398.000000pt" viewBox="0 0 398.000000 398.000000"
 preserveAspectRatio="xMidYMid meet">

<g transform="translate(0.000000,398.000000) scale(0.100000,-0.100000)"
fill="#000000" stroke="none">
<path d="M1753 3756 c-39 -33 -46 -71 -27 -137 13 -43 30 -66 93 -128 43 -42
94 -85 114 -96 l36 -19 56 38 c30 21 79 65 109 97 93 100 109 189 44 244 -44
37 -111 32 -168 -14 l-39 -31 -45 31 c-63 45 -130 51 -173 15z m125 -22 c20
-8 49 -27 64 -41 16 -15 31 -22 39 -18 8 5 10 4 5 -4 -4 -6 -3 -18 4 -26 8 -9
8 -15 0 -20 -6 -3 -8 -11 -5 -16 4 -5 1 -9 -6 -9 -7 0 -9 -3 -6 -7 4 -3 -1
-12 -11 -20 -9 -8 -11 -11 -3 -7 9 5 12 3 7 -5 -4 -6 -11 -9 -16 -6 -5 3 -11
1 -15 -5 -4 -6 -11 -8 -16 -5 -5 4 -9 2 -9 -4 0 -14 -61 7 -80 28 -8 9 -21 16
-27 17 -28 2 -32 5 -38 24 -4 12 -2 27 4 34 8 10 7 17 -4 26 -22 18 -19 36 11
59 32 25 52 26 102 5z"/>
<path d="M1065 3156 c-133 -42 -212 -134 -250 -293 -14 -59 -21 -72 -38 -75
-25 -3 -25 13 -10 -255 9 -163 11 -174 41 -235 17 -36 43 -81 56 -101 14 -20
22 -37 18 -37 -50 -2 -138 -23 -154 -37 -20 -17 -179 -248 -245 -355 -18 -29
-33 -65 -33 -81 0 -37 23 -80 52 -95 21 -12 144 -46 211 -59 24 -5 28 -9 22
-27 -13 -41 -18 -196 -6 -196 20 0 12 -35 -28 -116 -55 -114 -121 -308 -121
-356 0 -33 6 -46 34 -72 75 -70 127 -106 179 -126 30 -12 66 -29 79 -39 13
-10 32 -21 42 -25 17 -6 18 -14 12 -86 -5 -61 -11 -85 -26 -100 -11 -11 -20
-27 -20 -36 0 -26 -38 -66 -108 -115 -62 -42 -67 -48 -70 -85 -2 -31 2 -45 19
-60 19 -17 37 -19 218 -19 205 1 263 10 319 53 51 40 30 98 -45 123 -38 12
-39 16 -17 40 18 20 11 39 -12 39 -9 0 -14 3 -12 8 2 4 16 31 31 59 28 55 57
150 57 190 0 17 -12 31 -45 51 -57 34 -57 51 -9 214 20 67 40 149 45 183 5 34
17 81 28 106 12 24 21 55 21 69 0 14 7 33 14 43 13 16 15 14 21 -25 12 -77 51
-145 102 -175 52 -30 162 -42 226 -25 l38 11 -5 -62 c-7 -79 9 -125 51 -150
65 -38 117 -3 133 90 4 26 8 42 9 36 2 -22 52 -15 58 7 3 11 7 20 9 20 3 0 30
-13 62 -29 61 -30 151 -64 218 -81 l41 -10 28 -105 c16 -58 26 -107 24 -109
-2 -2 -19 -1 -36 1 -28 5 -33 9 -33 34 0 15 -5 31 -11 35 -7 4 -51 8 -100 10
l-88 2 -51 -61 c-28 -34 -67 -95 -87 -134 -34 -68 -36 -77 -30 -138 4 -36 3
-64 -1 -61 -11 6 -95 -13 -106 -24 -22 -21 46 -56 126 -64 15 -1 37 -11 47
-20 44 -40 158 -59 204 -34 19 10 20 9 10 -4 -11 -13 -5 -19 40 -41 97 -49
289 -83 522 -93 122 -6 168 8 192 56 19 37 16 94 -6 121 -17 21 -28 24 -98 26
-43 0 -91 4 -108 8 -16 4 -42 8 -57 9 -34 1 -22 17 32 41 48 22 50 39 8 65
-45 27 -115 27 -145 -1 -26 -25 -23 -28 -52 71 l-18 65 107 2 c253 5 357 67
367 221 3 41 -1 92 -10 132 -9 36 -13 66 -9 68 37 13 185 106 234 146 41 33
84 58 121 69 51 16 64 26 117 90 67 81 145 224 185 339 l27 77 -21 37 c-21 36
-22 41 -10 125 7 50 10 143 7 217 l-5 129 44 11 c91 25 169 103 194 196 26 95
-1 279 -54 374 -12 21 -10 26 25 61 52 52 54 89 8 161 -16 25 -32 58 -36 73
-9 37 -46 61 -81 52 -15 -3 -44 -25 -65 -47 -25 -27 -38 -36 -38 -25 0 24 -74
97 -98 97 -34 0 -70 -18 -82 -40 -20 -37 6 -76 90 -140 112 -85 163 -157 215
-300 37 -101 40 -215 7 -277 -23 -44 -77 -86 -123 -97 -25 -5 -27 -3 -48 72
-28 96 -95 240 -151 322 -98 144 -271 295 -438 382 -165 87 -296 118 -487 118
-302 0 -559 -98 -756 -287 l-66 -64 -6 56 c-18 180 -205 306 -452 304 -49 0
-108 -6 -130 -13z m277 -32 c123 -29 210 -94 254 -188 29 -63 32 -173 5 -256
l-17 -55 -45 3 c-24 1 -80 14 -125 29 -63 20 -84 32 -96 54 -31 54 -168 68
-168 18 0 -19 -18 -24 -65 -19 -28 3 -60 32 -60 55 0 13 -12 26 -35 37 -43 22
-80 23 -106 3 -10 -8 -27 -15 -37 -15 -21 0 -19 18 13 123 59 192 239 270 482
211z m1096 -144 c44 0 49 -20 25 -93 -15 -45 -18 -69 -12 -92 5 -16 9 -52 9
-79 l0 -50 -28 27 c-117 112 -227 -21 -162 -197 12 -30 27 -60 35 -66 8 -7 15
-21 15 -32 0 -16 3 -18 13 -9 8 6 3 -12 -11 -40 -14 -28 -28 -67 -31 -87 -5
-30 -11 -38 -31 -40 -39 -4 -82 30 -114 88 -24 43 -29 67 -30 124 -1 39 -7 80
-13 91 -6 11 -14 37 -17 59 -10 52 -25 76 -61 92 -16 7 -23 14 -15 14 8 0 26
18 39 39 13 22 39 56 57 77 37 41 47 89 17 80 -10 -2 -38 -8 -63 -12 -39 -6
-43 -5 -32 9 7 8 32 18 57 21 51 8 63 20 67 65 1 18 7 36 13 41 8 7 10 -4 7
-40 l-4 -49 39 11 c21 5 47 17 58 26 19 16 19 16 5 -3 -8 -11 -22 -29 -32 -40
-27 -31 -51 -106 -38 -119 8 -8 14 -6 22 8 22 38 82 97 94 92 8 -3 13 0 11 7
-1 7 5 12 13 11 20 -1 25 43 8 65 -10 13 -10 14 2 4 8 -7 23 -13 34 -13 17 0
15 5 -15 38 l-34 37 35 -32 c25 -23 46 -33 68 -33z m-507 1 c-31 -23 -90 -57
-76 -44 13 14 88 63 95 63 3 0 -6 -9 -19 -19z m389 5 c0 -2 -7 -7 -16 -10 -8
-3 -12 -2 -9 4 6 10 25 14 25 6z m-489 -94 c-11 -16 -28 -35 -38 -43 -9 -8 -2
5 17 29 38 48 52 57 21 14z m105 -41 c-3 -4 -23 -11 -43 -15 -21 -3 -49 -8
-63 -11 -14 -3 0 4 30 14 62 22 84 25 76 12z m816 -32 c-87 -25 -95 -162 -15
-268 15 -20 19 -30 9 -22 -39 32 -69 101 -74 171 -4 66 -3 70 26 99 20 21 40
31 59 30 28 -1 28 -1 -5 -10z m78 -68 c28 -19 66 -89 76 -138 6 -31 5 -33 -22
-33 -15 0 -47 -9 -71 -21 -35 -17 -46 -19 -58 -9 -22 18 -18 30 10 30 35 0 51
41 35 92 -11 39 -34 58 -70 58 -28 0 -21 21 11 37 27 14 52 10 89 -16z m-1965
-26 c-31 -30 -31 -36 -1 -68 30 -33 67 -42 107 -28 32 11 32 11 14 -9 -22 -24
-54 -25 -124 -4 l-53 15 6 37 c4 20 6 47 6 60 0 18 6 22 35 22 l34 0 -24 -25z
m90 -7 c14 -6 25 -15 25 -20 0 -13 -18 -9 -23 5 -3 8 -7 6 -12 -7 -5 -11 -3
-27 4 -37 10 -17 8 -19 -16 -19 -30 0 -41 6 -61 32 -11 14 -10 20 7 37 24 24
39 26 76 9z m2305 3 c0 -5 7 -17 16 -25 8 -9 12 -21 8 -27 -5 -8 -13 -4 -25
12 -20 26 -24 49 -9 49 6 0 10 -4 10 -9z m-1318 -26 c3 -13 1 -22 -3 -19 -9 5
-13 44 -5 44 2 0 6 -11 8 -25z m-675 9 c-3 -3 -12 -4 -19 -1 -8 3 -5 6 6 6 11
1 17 -2 13 -5z m1503 -19 c0 -8 -4 -15 -9 -15 -13 0 -22 16 -14 24 11 11 23 6
23 -9z m-362 -28 c36 -33 54 -74 62 -139 l6 -58 -31 0 c-17 0 -49 -9 -70 -20
l-40 -21 -17 22 c-23 27 -23 38 1 32 48 -12 70 80 30 131 -12 15 -30 26 -45
26 -30 0 -31 13 -3 41 26 26 71 20 107 -14z m789 -24 c-3 -10 -5 -4 -5 12 0
17 2 24 5 18 2 -7 2 -21 0 -30z m-1965 15 c-19 -19 -14 -45 10 -62 22 -16 22
-16 -8 -16 -33 0 -84 33 -84 54 0 22 23 36 59 36 27 0 32 -3 23 -12z m126 -37
c5 -30 -16 -78 -36 -86 -19 -7 -117 12 -153 31 -15 7 -29 22 -32 34 -5 19 -3
18 25 -5 37 -31 104 -34 138 -7 22 18 22 20 7 50 l-15 31 31 -13 c21 -8 33
-21 35 -35z m-263 -16 c11 -49 13 -51 67 -72 31 -13 87 -26 125 -29 68 -6 71
-6 89 21 35 51 54 65 84 65 22 0 28 -4 24 -15 -8 -20 2 -19 34 4 37 25 54 30
75 19 21 -11 23 -68 3 -106 -31 -59 -109 -107 -154 -95 -20 5 -20 6 5 75 14
38 22 72 19 75 -3 4 -6 0 -6 -8 0 -12 -2 -12 -9 0 -8 12 -12 9 -23 -15 -16
-37 -18 -39 -69 -96 -40 -46 -76 -68 -49 -30 7 9 -4 -2 -24 -25 -37 -42 -74
-59 -62 -28 9 24 -11 64 -36 70 -13 3 -52 10 -88 14 -36 5 -51 9 -33 10 21 1
36 8 43 20 13 25 13 31 0 31 -5 0 -10 -7 -10 -16 0 -13 -7 -15 -31 -10 -17 3
-44 6 -60 6 -26 0 -59 22 -59 39 0 5 11 23 25 42 13 19 34 51 45 72 16 29 26
37 43 35 17 -2 24 -13 32 -53z m170 45 c3 -5 1 -10 -4 -10 -6 0 -11 5 -11 10
0 6 2 10 4 10 3 0 8 -4 11 -10z m-331 -70 c23 0 27 -3 20 -17 -4 -10 -8 -35
-9 -56 0 -37 -1 -38 -28 -33 -30 6 -67 -21 -67 -49 0 -28 -18 -15 -34 25 -9
22 -16 67 -16 99 l0 59 53 -14 c28 -7 65 -14 81 -14z m1406 9 c0 -5 -7 -9 -15
-9 -15 0 -20 12 -9 23 8 8 24 -1 24 -14z m1025 -39 c27 -54 35 -58 59 -35 9 9
17 11 21 5 3 -5 3 -10 -2 -10 -4 0 -16 -7 -26 -14 -18 -14 -18 -17 7 -86 14
-39 26 -77 26 -83 -1 -7 -14 24 -30 67 -16 43 -31 80 -33 82 -1 1 -16 -4 -32
-12 -17 -7 -57 -24 -90 -37 l-60 -23 -7 -85 c-7 -88 -37 -190 -65 -221 -13
-14 -13 -18 -2 -18 10 -1 9 -4 -3 -11 -11 -6 -18 -23 -19 -42 -1 -31 -1 -31
-9 -7 -4 14 -8 19 -9 11 -1 -8 -9 -23 -18 -34 -17 -19 -17 -19 5 -12 13 4 35
4 50 0 26 -7 25 -8 -19 -21 -43 -13 -45 -15 -41 -44 3 -23 0 -30 -12 -30 -10
0 -16 9 -16 25 0 28 -17 34 -27 9 -3 -9 0 -20 8 -26 12 -8 11 -9 -1 -5 -9 2
-15 16 -15 32 0 22 -9 35 -34 52 -44 30 -55 29 -83 -7 -13 -17 -35 -46 -50
-64 -32 -39 -37 -62 -10 -51 29 13 129 18 147 7 13 -6 2 -8 -35 -4 -37 3 -51
2 -46 -6 7 -12 -72 -58 -82 -47 -3 3 -12 -5 -19 -17 -13 -22 -13 -22 -7 5 5
23 1 35 -24 60 -62 66 -62 108 -1 129 17 6 28 15 26 22 -3 7 11 10 43 8 63 -5
114 19 134 63 9 18 16 41 16 52 0 14 -6 12 -28 -14 -30 -35 -90 -69 -140 -79
-50 -10 -39 14 13 27 52 13 122 72 130 110 5 20 -2 35 -29 68 -20 24 -36 49
-36 56 0 7 12 28 26 45 30 35 25 51 -8 26 -75 -54 -98 -67 -107 -61 -19 11
-12 46 18 99 16 28 34 70 40 93 16 58 31 70 101 78 56 7 63 5 110 -25 55 -35
65 -60 25 -60 -30 0 -34 -26 -5 -35 26 -8 68 18 80 50 5 12 14 26 20 30 9 6 9
2 1 -14 -8 -14 -8 -21 -1 -21 5 0 10 -13 10 -30 0 -17 5 -30 13 -30 10 0 113
30 155 45 10 4 6 19 -16 60 -17 30 -26 55 -21 55 5 0 20 -22 34 -50z m-118 -6
c-3 -3 -12 -4 -19 -1 -8 3 -5 6 6 6 11 1 17 -2 13 -5z m-1807 -54 c-6 -11 -12
-20 -14 -20 -2 0 -2 9 1 20 3 11 9 20 15 20 5 0 4 -9 -2 -20z m562 -93 c27
-43 30 -53 22 -85 -10 -42 -37 -51 -95 -33 l-34 11 34 -5 c28 -4 32 -3 22 9
-8 9 -12 43 -10 91 2 67 -1 78 -22 103 -14 16 -9 13 14 -8 21 -19 52 -57 69
-83z m-1051 -7 c11 -6 59 -17 107 -24 l87 -14 -61 -1 c-64 -1 -164 23 -164 39
0 13 7 13 31 0z m4 -96 c19 -8 7 -34 -15 -34 -33 0 -50 28 -50 83 l1 52 25
-48 c14 -26 31 -50 39 -53z m952 64 c-3 -7 -5 -2 -5 12 0 14 2 19 5 13 2 -7 2
-19 0 -25z m442 -24 c-6 -8 -15 -14 -20 -14 -14 0 -11 28 4 33 20 7 29 -4 16
-19z m-1202 -36 c-20 -48 -44 -68 -81 -68 -29 0 -56 14 -56 31 0 3 17 9 38 12
20 4 53 20 72 36 19 16 36 28 38 26 2 -2 -3 -18 -11 -37z m2310 -10 c-3 -8 -6
-5 -6 6 -1 11 2 17 5 13 3 -3 4 -12 1 -19z m10 -40 c-3 -8 -6 -5 -6 6 -1 11 2
17 5 13 3 -3 4 -12 1 -19z m-2132 -77 c-4 -17 -11 -31 -17 -31 -6 0 -8 10 -4
23 3 12 6 31 6 42 0 14 3 16 11 8 7 -7 8 -24 4 -42z m657 28 c39 -9 57 -21
102 -70 66 -71 116 -142 116 -163 0 -18 -4 -19 -49 -10 -24 5 -30 11 -26 24 3
10 1 21 -5 25 -15 9 -78 -14 -90 -33 -5 -10 -10 -12 -10 -5 0 7 8 18 19 25 18
11 18 13 -9 49 -15 21 -33 52 -40 70 -13 31 -14 31 -71 25 -32 -3 -61 -2 -64
3 -6 11 10 16 73 26 23 4 42 10 42 15 0 5 -19 16 -42 24 -43 16 -37 16 54 -5z
m1485 -1 c-3 -8 -6 -5 -6 6 -1 11 2 17 5 13 3 -3 4 -12 1 -19z m-2185 -19 c-4
-28 -7 -30 -31 -23 -14 4 -34 7 -43 8 -31 1 -20 14 25 29 23 9 45 16 48 16 3
1 4 -13 1 -30z m-125 -23 c-3 -8 -1 -17 6 -19 7 -2 -8 -14 -33 -27 -76 -39
-200 -28 -200 19 0 16 7 18 68 14 43 -3 83 1 112 10 25 8 47 15 49 16 2 1 1
-5 -2 -13z m223 -21 c13 -14 21 -25 18 -25 -2 0 -15 11 -28 25 -13 14 -21 25
-18 25 2 0 15 -11 28 -25z m2020 -55 c-8 -5 -22 -9 -30 -9 -10 0 -8 3 5 9 27
12 43 12 25 0z m-217 -17 c-7 -2 -21 -2 -30 0 -10 3 -4 5 12 5 17 0 24 -2 18
-5z m-1528 -136 c265 -160 504 -254 813 -316 462 -94 853 -93 1055 4 l47 22
-6 -21 c-36 -120 -120 -275 -196 -361 -51 -57 -79 -70 -208 -99 -435 -100
-1104 62 -1546 373 -111 77 -194 159 -194 188 0 14 12 82 26 152 14 69 24 140
21 158 l-6 33 52 -39 c29 -22 93 -64 142 -94z m1622 102 c-11 -7 -23 -7 -28
-2 -5 5 3 9 19 11 24 1 25 0 9 -9z m-1200 -95 c-3 -3 -12 -4 -19 -1 -8 3 -5 6
6 6 11 1 17 -2 13 -5z m23 -28 c0 -2 -8 -10 -17 -17 -16 -13 -17 -12 -4 4 13
16 21 21 21 13z m959 -188 c0 -57 -2 -98 -4 -93 -8 24 -12 195 -4 195 5 0 9
-46 8 -102z m-2318 37 c36 -4 54 -14 77 -40 28 -30 30 -36 21 -69 -6 -20 -7
-45 -4 -55 4 -13 -1 -20 -17 -25 -46 -12 -123 -5 -163 14 -38 19 -35 19 28 4
16 -3 27 -2 27 4 0 5 -21 15 -47 21 -27 7 -59 21 -73 32 l-25 20 32 -15 c36
-18 108 -22 98 -6 -3 6 -20 10 -37 10 -31 0 -108 37 -108 52 0 12 13 10 37 -7
27 -19 103 -31 103 -16 0 6 -11 11 -25 11 -27 0 -115 40 -115 52 0 12 13 10
53 -7 41 -17 113 -20 122 -5 3 6 -5 10 -19 10 -35 0 -56 10 -56 26 0 10 6 11
23 4 12 -5 43 -12 68 -15z m656 -200 c-11 -22 -28 -62 -38 -90 l-18 -50 0 41
c-1 28 5 46 18 58 11 10 25 41 32 69 9 40 14 47 19 32 5 -13 0 -35 -13 -60z
m92 -112 c24 -53 88 -140 154 -209 37 -39 67 -74 67 -76 0 -11 -90 -28 -145
-28 -31 0 -69 7 -85 15 -39 20 -65 89 -57 155 7 62 37 170 47 170 4 0 12 -12
19 -27z m-509 -370 c-5 -21 -13 -87 -19 -147 -6 -60 -13 -111 -16 -114 -2 -2
-18 7 -36 22 -17 15 -44 33 -59 41 l-28 15 42 78 c23 42 48 92 55 110 11 25
19 32 41 32 27 0 28 -1 20 -37z m1851 -240 c8 -43 7 -71 -1 -102 -10 -37 -17
-45 -58 -64 -39 -17 -72 -22 -188 -25 l-141 -4 -26 106 c-15 58 -27 107 -27
110 0 2 17 2 38 -1 53 -7 234 14 312 35 36 10 68 16 73 12 4 -3 12 -33 18 -67z
m-801 -185 c-61 -73 -110 -170 -110 -214 0 -17 7 -53 15 -81 26 -88 101 -134
193 -120 25 5 32 3 22 -3 -24 -15 -119 -12 -156 6 -49 23 -87 106 -88 188 0
47 6 73 27 113 25 49 108 160 131 175 25 17 14 -5 -34 -64z m144 -50 c27 -38
20 -53 -24 -55 -22 -2 -49 -7 -59 -13 -14 -7 -22 -6 -32 6 -11 14 -8 21 24 50
43 39 70 43 91 12z m-969 -86 c-16 -56 -67 -156 -85 -167 -11 -7 -7 3 44 107
21 42 41 96 44 120 4 28 8 35 10 20 2 -12 -4 -48 -13 -80z m1101 32 l51 -6 18
-77 c10 -42 20 -81 22 -87 2 -6 -5 -14 -17 -17 -12 -3 -24 -14 -26 -25 -5 -16
-16 -19 -67 -21 -33 -1 -64 -4 -68 -6 -3 -3 -13 13 -22 35 -17 44 -45 60 -105
60 -28 1 -33 3 -21 10 10 6 16 25 17 51 1 24 8 46 15 51 6 4 36 8 65 8 39 0
52 4 52 15 0 17 11 18 86 9z m-245 -24 c10 -6 19 -16 19 -22 0 -7 -7 -5 -17 4
-10 9 -25 18 -33 21 -10 4 -11 6 -2 6 7 1 22 -4 33 -9z m0 -40 c13 -10 19 -19
13 -20 -6 0 -17 7 -24 15 -7 9 -19 14 -27 11 -7 -3 -13 -1 -13 4 0 16 26 11
51 -10z m-5 -36 c10 -8 13 -12 6 -9 -8 4 -26 11 -40 15 -22 7 -23 8 -6 9 11 1
29 -6 40 -15z m613 -68 l25 -14 -32 -16 c-17 -9 -46 -29 -64 -44 -44 -37 -85
-55 -91 -39 -6 17 10 57 39 94 20 27 32 33 62 33 20 -1 48 -7 61 -14z m-526
-7 c30 -16 37 -28 37 -65 0 -46 -19 -57 -95 -52 -55 3 -69 8 -95 33 -36 35
-37 40 -5 61 47 31 122 41 158 23z m-1198 -49 c7 -12 -12 -12 -40 0 -18 8 -17
9 7 9 15 1 30 -3 33 -9z m-27 -27 c-10 -2 -26 -2 -35 0 -10 3 -2 5 17 5 19 0
27 -2 18 -5z m28 -24 c5 -9 -1 -10 -22 -5 -20 5 -25 4 -14 -3 21 -14 5 -25
-18 -12 -12 6 -31 12 -44 12 -13 1 -6 5 17 9 62 11 73 11 81 -1z m1644 -29
c15 -5 19 -8 8 -9 -9 -1 -24 -8 -32 -17 -9 -8 -16 -12 -16 -7 0 5 5 14 12 21
17 17 -23 16 -42 0 -12 -11 -12 -10 -1 5 14 18 31 20 71 7z m295 -15 c43 -42
26 -88 -38 -100 -18 -3 -61 -5 -97 -3 -63 3 -65 4 -62 28 10 83 140 133 197
75z m-235 8 c0 -9 -52 -35 -58 -29 -2 3 9 11 25 20 33 18 33 18 33 9z m-1617
-84 c-61 -28 -148 -42 -221 -35 -112 10 -94 21 36 21 92 1 138 5 167 17 56 22
68 20 18 -3z m1512 -16 c112 -26 260 -36 320 -20 28 7 29 6 11 -7 -40 -32
-146 -32 -301 0 -108 22 -175 43 -175 55 0 7 7 8 18 4 9 -4 67 -18 127 -32z"/>
<path d="M1050 2861 c8 -5 33 -12 55 -15 28 -4 33 -3 15 2 -46 16 -86 23 -70
13z"/>
<path d="M1158 2863 c6 -2 18 -2 25 0 6 3 1 5 -13 5 -14 0 -19 -2 -12 -5z"/>
<path d="M1178 2833 c12 -2 30 -2 40 0 9 3 -1 5 -23 4 -22 0 -30 -2 -17 -4z"/>
<path d="M2170 2878 c0 -21 0 -21 15 -2 15 19 15 19 9 -1 -5 -16 -4 -17 5 -5
16 22 13 30 -9 30 -14 0 -20 -7 -20 -22z"/>
<path d="M2274 2858 l-19 -23 23 19 c21 18 27 26 19 26 -2 0 -12 -10 -23 -22z"/>
<path d="M1525 2549 c-19 -17 -38 -43 -41 -58 -4 -14 -11 -32 -16 -38 -14 -17
-2 -43 18 -43 9 0 36 20 60 44 38 37 44 49 44 85 0 51 -15 53 -65 10z"/>
<path d="M1671 1808 c-43 -219 -44 -228 -31 -243 31 -38 39 -15 84 258 0 5 -9
15 -21 23 -21 15 -22 14 -32 -38z"/>
<path d="M1760 1803 c0 -5 -11 -70 -24 -145 l-23 -138 23 -14 c22 -15 22 -14
33 48 6 34 11 76 11 91 0 49 15 15 44 -95 26 -103 47 -144 64 -125 5 6 14 35
21 65 53 236 51 219 30 231 -11 5 -23 8 -28 5 -5 -3 -14 -42 -22 -86 -7 -44
-16 -77 -19 -73 -4 5 -17 54 -30 111 -21 92 -27 105 -52 118 -15 8 -28 11 -28
7z"/>
<path d="M1987 1683 c-15 -15 -5 -40 21 -54 l29 -14 -27 -120 c-26 -117 -26
-120 -8 -129 26 -13 31 -4 58 117 12 56 25 105 27 109 2 4 15 2 28 -4 28 -13
30 -12 39 18 5 17 -4 24 -72 52 -86 35 -86 35 -95 25z"/>
<path d="M2185 1607 c-17 -44 -64 -282 -58 -287 5 -4 30 -15 57 -24 39 -13 51
-13 58 -4 17 28 8 48 -23 55 -36 7 -43 20 -30 56 9 24 13 26 37 17 31 -12 40
-8 46 25 5 21 1 25 -29 31 -32 6 -34 8 -27 38 3 17 7 32 9 34 1 1 21 -4 43
-12 41 -15 42 -15 48 10 4 14 5 26 3 28 -2 2 -32 13 -67 24 -46 15 -64 18 -67
9z"/>
<path d="M2346 1508 c-8 -29 -25 -95 -38 -146 -19 -81 -20 -94 -8 -102 25 -16
33 -6 48 51 18 71 25 77 56 46 22 -22 26 -35 26 -80 0 -48 3 -55 22 -60 12 -4
24 -4 26 -2 13 12 12 94 0 125 -14 34 -14 35 20 67 30 28 34 37 28 64 -3 18
-12 39 -19 47 -18 22 -71 42 -111 42 -33 0 -35 -2 -50 -52z m112 -17 c8 -4 12
-19 10 -32 -2 -20 -10 -25 -40 -27 -32 -3 -38 0 -38 17 0 46 31 66 68 42z"/>
<path d="M2562 1397 c-39 -205 -38 -197 -9 -197 29 0 31 5 48 105 6 39 14 75
18 82 4 7 24 -37 45 -97 30 -82 44 -110 60 -114 11 -3 22 -4 24 -2 2 2 17 62
33 133 16 70 31 138 34 151 5 21 3 23 -27 20 l-33 -3 -14 -92 c-8 -51 -17 -93
-20 -93 -4 0 -21 45 -40 100 -19 56 -37 102 -40 104 -3 2 -18 6 -32 9 -26 7
-26 7 -47 -106z"/>
<path d="M2856 1459 c-6 -16 -55 -283 -52 -285 0 -1 37 -3 81 -5 77 -4 80 -3
83 19 3 20 0 22 -47 22 -50 0 -51 1 -51 30 0 29 2 30 45 30 40 0 47 3 55 26 6
14 10 27 10 29 0 1 -20 6 -45 9 -43 7 -45 9 -39 34 11 52 11 51 62 45 45 -5
51 -3 57 16 4 13 4 25 1 28 -3 3 -39 8 -81 11 -58 4 -76 1 -79 -9z"/>
<path d="M3083 1463 c-27 -4 -33 -9 -33 -29 0 -20 5 -24 30 -24 17 0 30 -4 30
-9 0 -6 -11 -56 -25 -113 -14 -57 -25 -107 -25 -111 0 -5 12 -7 28 -5 25 3 28
8 45 83 38 162 34 154 72 161 28 5 35 11 35 30 0 23 -3 24 -62 22 -35 0 -78
-3 -95 -5z"/>
</g>
</svg>
