<?xml version="1.0" standalone="no"?>
<!DOCTYPE svg PUBLIC "-//W3C//DTD SVG 20010904//EN"
 "http://www.w3.org/TR/2001/REC-SVG-20010904/DTD/svg10.dtd">
<svg version="1.0" xmlns="http://www.w3.org/2000/svg"
 width="398.000000pt" height="398.000000pt" viewBox="0 0 398.000000 398.000000"
 preserveAspectRatio="xMidYMid meet">
<metadata>
Created by potrace 1.15, written by Peter Selinger 2001-2017
</metadata>
<g transform="translate(0.000000,398.000000) scale(0.100000,-0.100000)"
fill="#000000" stroke="none">
<path d="M1774 3770 c-52 -21 -70 -103 -39 -176 17 -41 110 -136 180 -184 l47
-32 35 18 c48 25 176 150 198 193 9 19 18 56 18 83 1 40 -4 53 -26 76 -41 40
-109 38 -171 -5 -26 -18 -50 -33 -55 -33 -4 0 -18 11 -31 25 -36 38 -109 54
-156 35z m114 -34 c15 -8 38 -26 51 -40 l24 -25 31 23 c23 18 36 22 54 15 12
-4 22 -11 22 -14 0 -4 -5 -3 -11 1 -6 3 -5 -4 3 -17 21 -35 10 -119 -16 -119
-6 0 -4 -5 4 -10 13 -8 12 -10 -4 -10 -11 0 -17 -3 -13 -6 17 -17 -71 -64
-121 -64 -35 0 -45 6 -94 58 -30 31 -61 74 -67 95 -15 46 -7 103 17 116 25 15
89 13 120 -3z"/>
<path d="M1060 3155 c-71 -22 -151 -83 -187 -144 -17 -29 -42 -90 -54 -136
-18 -69 -25 -85 -43 -87 -24 -3 -24 11 -8 -248 10 -181 18 -211 80 -313 38
-63 39 -65 18 -71 -11 -3 -37 -6 -56 -6 -61 0 -89 -29 -225 -230 -116 -173
-130 -198 -130 -236 0 -31 6 -49 24 -68 25 -27 31 -29 174 -67 l89 -24 -8 -30
c-12 -51 -15 -173 -4 -180 18 -11 10 -48 -25 -116 -45 -86 -125 -322 -125
-366 0 -25 8 -42 29 -61 76 -71 129 -107 194 -134 40 -16 75 -36 80 -44 4 -8
17 -14 29 -14 20 0 21 -3 14 -87 -4 -54 -12 -93 -21 -103 -8 -9 -15 -21 -15
-27 0 -26 -65 -96 -115 -124 -61 -34 -75 -53 -75 -99 0 -47 48 -65 170 -64 97
1 180 22 237 60 24 15 25 19 18 79 -6 62 -6 64 31 112 47 61 79 133 95 213
l12 63 -29 24 c-16 13 -38 26 -49 29 -19 5 -20 10 -14 57 3 29 20 101 38 160
18 59 35 131 38 160 3 29 14 68 23 87 10 19 21 51 24 70 4 19 11 44 16 55 5
11 12 34 16 50 7 25 9 16 14 -45 3 -41 14 -92 24 -113 40 -82 134 -125 246
-114 31 4 64 9 73 13 15 5 17 -3 17 -71 0 -108 23 -144 93 -145 49 0 73 25 82
88 6 48 8 50 27 39 16 -10 22 -9 38 10 l18 23 75 -35 c41 -19 111 -45 155 -58
45 -13 84 -26 88 -29 3 -4 19 -54 34 -112 26 -95 27 -106 12 -106 -39 0 -62
13 -62 34 0 40 -13 47 -104 49 l-87 3 -40 -43 c-59 -65 -116 -157 -129 -212
-23 -96 22 -226 90 -261 80 -40 183 -31 209 18 14 27 14 84 0 116 -13 27 -54
46 -102 46 -24 0 -27 2 -18 14 11 13 18 43 20 83 1 15 58 33 96 30 20 -1 30 3
30 13 0 8 7 14 15 13 8 -1 40 -4 71 -8 l57 -6 21 -86 c12 -47 21 -87 19 -88
-2 -1 -13 -8 -26 -14 -14 -8 -21 -18 -18 -27 3 -8 11 -54 17 -103 l11 -89 72
-21 c169 -49 335 -63 407 -34 66 26 90 107 46 158 -32 38 -88 43 -167 16 -35
-12 -66 -18 -69 -13 -3 5 -23 12 -44 16 -33 6 -37 9 -26 23 8 8 37 29 66 45
29 16 53 34 53 39 0 18 -50 40 -103 46 -50 5 -55 4 -75 -22 -12 -16 -24 -26
-25 -24 -2 2 -12 36 -22 74 -10 39 -20 75 -22 81 -3 8 37 13 129 17 77 3 153
11 181 20 153 49 195 158 142 369 -6 25 -2 29 57 59 71 36 132 76 198 130 25
20 68 44 97 53 93 31 202 172 279 361 48 116 53 159 26 188 -19 20 -20 26 -9
67 6 25 11 123 12 222 l0 178 30 6 c86 19 174 101 200 187 30 100 15 239 -39
360 l-23 52 34 30 c46 40 56 102 25 145 -12 16 -33 53 -46 83 -18 41 -30 55
-49 59 -35 7 -84 -18 -104 -53 -20 -34 -29 -36 -38 -10 -3 11 -19 34 -35 50
-50 55 -140 37 -140 -27 1 -35 10 -46 95 -114 96 -76 131 -118 176 -212 85
-179 91 -317 18 -401 -32 -36 -114 -74 -128 -59 -4 5 -15 38 -25 74 -58 218
-209 438 -397 579 -161 122 -318 195 -484 226 -115 22 -330 15 -456 -14 -180
-41 -358 -136 -491 -259 l-65 -62 -5 49 c-13 138 -135 255 -310 296 -78 18
-218 18 -278 0z m280 -27 c60 -15 151 -61 194 -99 56 -49 89 -127 89 -212 1
-81 -26 -185 -49 -194 -18 -7 -126 17 -190 40 -22 9 -57 32 -77 52 -34 34 -39
36 -93 33 -78 -4 -81 -24 -5 -31 32 -3 67 -10 78 -17 17 -11 17 -11 -2 -4 -11
3 -66 8 -121 9 -110 4 -146 18 -137 56 4 15 -5 23 -38 39 -53 24 -79 25 -105
5 -23 -17 -54 -20 -54 -4 0 27 34 137 55 179 40 79 124 138 228 160 48 10 160
4 227 -12z m1123 -24 c29 -14 73 -44 100 -66 l47 -39 93 10 c50 6 108 12 127
14 l35 2 -45 24 c-25 13 -67 32 -95 42 -40 15 -43 18 -15 13 19 -3 62 -17 95
-31 33 -14 79 -32 103 -40 23 -9 42 -19 42 -23 0 -5 30 -31 68 -58 37 -28 92
-76 122 -106 39 -41 62 -56 82 -56 15 0 30 -4 33 -10 3 -5 -3 -10 -15 -10 -29
0 -16 -17 27 -35 31 -13 35 -19 30 -42 -7 -36 28 -86 86 -123 25 -16 53 -40
62 -54 25 -38 81 -202 101 -296 19 -93 25 -312 11 -412 -7 -50 -12 -59 -43
-77 -19 -11 -34 -27 -34 -35 0 -20 -95 -63 -209 -94 -88 -23 -113 -26 -303
-26 -113 -1 -210 3 -214 7 -15 14 -7 111 14 169 l20 56 -27 26 -26 25 -220
-43 c-166 -32 -220 -46 -219 -57 1 -8 5 -32 9 -53 5 -26 4 -37 -2 -33 -6 4
-14 27 -17 52 -4 25 -13 45 -19 45 -7 0 -55 -7 -107 -15 -52 -8 -98 -11 -102
-7 -5 5 39 14 97 21 58 7 107 17 110 21 3 5 -6 59 -19 122 -13 62 -30 146 -36
187 l-12 73 -46 -6 c-24 -3 -53 -6 -64 -6 -15 0 -4 -18 47 -81 77 -94 94 -124
78 -140 -17 -17 -83 10 -83 33 0 24 -41 24 -71 -1 -19 -16 -21 -21 -9 -25 8
-3 27 -10 43 -15 41 -16 33 -36 -33 -81 -32 -22 -63 -47 -68 -55 -7 -14 -12
-14 -48 1 -79 32 -244 128 -307 178 -80 63 -157 153 -197 229 -29 52 -30 58
-13 63 54 17 64 35 28 54 -38 21 -32 40 14 40 49 0 116 48 148 106 21 38 26
41 115 64 86 23 90 25 55 30 -28 4 -42 12 -56 36 l-19 32 24 21 c28 24 30 39
10 67 -18 23 -17 24 -59 -61 -32 -64 -33 -71 -17 -77 19 -7 35 -26 27 -34 -2
-3 -17 1 -31 8 -28 12 -30 26 -11 70 5 13 2 15 -14 11 -24 -6 -24 -2 -7 47 12
33 13 33 20 13 10 -32 18 -29 44 20 33 63 27 81 -19 57 -31 -17 -22 -2 11 18
16 10 43 37 60 60 51 70 260 206 289 187 22 -13 10 -48 -34 -98 -47 -54 -56
-73 -29 -63 9 3 22 6 29 6 25 0 149 129 165 172 8 23 20 43 27 45 8 3 7 -6 -3
-27 -20 -39 -15 -45 22 -25 16 8 48 15 71 15 35 0 50 -7 83 -37 44 -39 68 -45
158 -36 l53 5 -28 30 c-15 16 -64 47 -108 69 -50 24 -71 39 -57 39 12 0 46
-12 75 -26z m-1591 -377 c-28 -30 -28 -48 1 -74 30 -28 59 -36 88 -23 24 10
24 10 -3 5 -35 -7 -74 9 -88 35 -24 45 49 80 96 46 11 -8 15 -18 10 -23 -5 -4
-11 -2 -13 5 -7 18 -23 4 -23 -19 0 -13 10 -24 30 -30 25 -9 28 -14 20 -30
-13 -24 -65 -25 -139 -3 -42 12 -51 19 -46 32 3 9 9 35 12 59 6 41 7 43 41 43
l35 0 -21 -23z m307 -67 c37 19 115 -14 81 -35 -5 -3 -10 2 -10 12 0 16 -2 16
-15 2 -19 -19 -10 -48 19 -59 17 -7 15 -9 -16 -9 -25 -1 -46 7 -67 25 -21 17
-29 20 -25 10 8 -21 56 -46 88 -46 65 0 92 32 66 81 -12 22 -12 22 28 8 38
-13 44 -29 30 -71 -22 -66 -43 -71 -152 -38 -54 17 -67 25 -72 46 -3 13 -1 30
5 38 6 7 9 22 5 32 -4 14 -3 15 4 5 7 -10 14 -11 31 -1z m-91 -22 c7 -7 12
-27 12 -45 0 -23 7 -37 23 -47 36 -24 102 -44 166 -52 57 -6 61 -5 83 21 48
57 59 65 88 65 17 0 29 -3 29 -7 -3 -21 4 -20 37 2 46 31 59 31 79 1 36 -54
-31 -162 -116 -187 -32 -10 -45 -10 -60 -1 -17 11 -19 9 -21 -10 0 -13 -4 -3
-8 22 l-7 45 -1 -52 c-1 -29 -6 -53 -10 -53 -4 0 -7 17 -5 38 2 32 1 33 -6 12
-8 -21 -9 -22 -10 -5 -1 18 -3 17 -19 -8 -10 -15 -22 -24 -25 -20 -4 3 -7 1
-7 -6 0 -7 -4 -10 -8 -7 -5 3 -21 -4 -38 -15 -39 -26 -44 -24 -44 15 0 18 -7
39 -15 46 -8 7 -52 16 -97 21 -44 4 -85 13 -89 20 -4 7 -14 9 -23 6 -8 -3 -28
0 -43 8 -54 29 -87 16 -102 -41 l-7 -27 -22 37 c-17 29 -22 53 -22 112 0 41 1
74 3 74 1 0 27 -7 57 -15 30 -8 68 -15 84 -15 28 0 28 0 12 -25 -9 -13 -16
-34 -16 -46 0 -24 26 -59 43 -59 6 0 0 11 -12 24 -28 30 -24 57 15 101 14 17
32 42 40 58 15 28 42 35 62 15z m-129 -332 c53 -31 128 -28 174 6 l36 28 -9
-29 c-26 -93 -95 -130 -142 -76 -22 26 -47 32 -64 15 -13 -13 -52 -1 -58 19
-6 19 -9 66 -7 101 2 24 3 23 19 -10 9 -18 32 -43 51 -54z m-76 -199 c-3 -12
-20 -33 -39 -46 -19 -14 -46 -37 -59 -53 -23 -27 -25 -28 -25 -9 0 12 -6 21
-14 21 -16 0 -26 -69 -26 -179 0 -66 -2 -72 -17 -66 -39 16 -52 16 -76 0 -16
-10 -34 -14 -47 -10 -12 4 -27 1 -35 -5 -19 -16 -13 -88 10 -123 10 -15 16
-30 13 -32 -9 -10 -69 17 -78 35 -24 44 -10 73 116 261 69 103 132 193 141
200 14 12 69 25 119 28 17 1 20 -4 17 -22z m421 -18 c-6 -10 11 -12 63 -9 23
1 40 -6 58 -24 29 -29 32 -62 10 -152 -7 -33 -23 -116 -35 -185 -35 -209 -42
-219 -150 -219 -62 1 -185 13 -241 25 -36 8 -53 43 -44 93 8 49 33 62 118 62
80 -1 133 -13 170 -40 42 -32 57 -11 17 24 -17 14 -35 26 -39 26 -5 0 0 53 10
118 22 141 23 155 7 149 -7 -2 -25 17 -40 42 l-27 46 36 37 c32 33 38 35 64
26 16 -5 26 -14 23 -19z m-390 -39 c17 -10 37 -33 46 -50 l16 -32 30 25 c18
15 47 26 79 30 28 3 57 8 66 12 12 5 25 -8 48 -50 18 -32 30 -59 27 -62 -2 -3
-19 20 -37 51 -17 32 -34 55 -36 52 -3 -3 11 -32 31 -64 40 -66 41 -70 25
-175 l-11 -74 -91 -2 c-51 -1 -117 -3 -148 -4 -44 -2 -70 5 -132 33 l-76 35
-1 70 0 70 73 74 c39 41 58 64 40 52 -17 -12 -50 -42 -72 -68 -23 -25 -41 -41
-41 -34 0 12 117 131 128 131 4 0 20 -9 36 -20z m731 -117 c114 -71 243 -138
382 -196 282 -119 707 -199 1058 -200 235 -1 309 13 493 90 17 7 -25 -105 -80
-210 -23 -45 -69 -114 -100 -153 -53 -65 -65 -75 -121 -93 -369 -123 -907 -48
-1392 194 -171 85 -290 163 -405 265 l-62 55 32 158 c26 127 30 163 21 188
l-10 31 47 -36 c26 -20 88 -62 137 -93z m-908 -183 c41 -5 61 -13 86 -38 32
-31 33 -35 29 -90 -3 -31 -10 -60 -16 -64 -22 -15 -131 -8 -173 12 -45 20 -60
36 -20 21 43 -16 77 -21 77 -12 0 5 -17 12 -37 16 -45 8 -85 28 -104 51 -13
17 -13 17 11 1 32 -20 116 -35 106 -19 -4 7 -22 12 -39 12 -32 0 -107 42 -107
60 0 14 4 13 42 -9 40 -24 114 -39 104 -22 -4 6 -18 11 -32 11 -33 0 -104 37
-104 54 0 11 10 10 50 -5 54 -20 120 -25 120 -9 0 6 -13 10 -30 10 -20 0 -33
7 -41 22 -10 19 -9 20 7 13 11 -4 43 -11 71 -15z m133 -255 c39 -19 70 -33 70
-30 0 2 -22 16 -50 30 -57 29 -64 40 -18 30 17 -4 45 -9 62 -11 17 -2 55 -10
84 -18 29 -8 109 -18 177 -22 l123 -7 7 -44 c7 -51 -9 -110 -33 -117 -9 -3
-67 -10 -127 -15 -156 -16 -265 0 -380 54 -50 24 -53 52 -19 173 6 20 30 14
104 -23z m624 -52 c16 -40 107 -164 169 -229 l67 -72 -47 -12 c-69 -17 -170
-14 -200 5 -56 37 -67 148 -28 273 16 54 28 64 39 35z m-619 -143 c58 -19 91
-23 195 -22 69 1 149 5 178 10 40 7 52 6 52 -4 0 -16 -15 -20 -113 -33 -162
-22 -273 -9 -384 45 -29 14 -53 32 -53 40 0 13 4 13 28 0 15 -7 59 -24 97 -36z
m1020 -90 c37 -45 87 -97 111 -116 l44 -36 112 -2 c62 0 154 5 203 12 170 23
184 24 222 17 l38 -8 -44 -8 c-24 -5 -46 -11 -48 -13 -8 -7 46 -101 78 -135
27 -31 28 -32 7 -29 -14 2 -36 25 -62 64 -23 34 -45 69 -51 77 -9 12 -41 14
-220 8 l-210 -6 60 -40 c33 -22 96 -54 140 -72 52 -21 71 -33 54 -33 -31 0
-163 64 -244 119 -37 25 -72 41 -90 41 -16 0 -37 5 -45 11 -11 8 -5 9 24 5
l40 -5 -65 67 c-79 81 -145 162 -132 162 6 0 40 -36 78 -80z m-1035 33 c42
-16 96 -27 153 -30 53 -4 87 -10 87 -17 0 -6 5 -3 11 7 7 11 23 17 47 17 20 1
56 5 80 9 39 8 42 7 42 -13 0 -12 -11 -44 -24 -72 -13 -27 -27 -72 -30 -100
-3 -28 -22 -104 -42 -170 -20 -65 -37 -141 -39 -169 -6 -97 -16 -160 -30 -209
-8 -27 -15 -73 -15 -102 0 -107 -28 -127 -102 -74 -22 17 -52 30 -65 30 -28 0
-29 11 -3 35 11 10 20 31 20 49 4 191 6 224 18 245 8 13 18 78 22 150 5 69 16
172 25 228 11 70 13 108 7 120 -9 15 -11 12 -17 -18 l-7 -36 -41 8 c-23 4 -55
12 -70 18 -36 14 -37 14 -37 -3 0 -7 15 -17 33 -23 41 -12 39 -22 -25 -140
-44 -83 -51 -92 -68 -83 -23 13 -72 2 -67 -14 2 -6 13 -10 23 -8 27 4 131 -49
179 -91 l40 -34 -18 -55 c-9 -30 -17 -64 -17 -76 0 -24 -25 -30 -33 -8 -3 7
-37 26 -76 41 -39 16 -94 48 -123 72 -29 24 -61 51 -70 58 -34 28 -31 59 17
202 54 156 77 208 100 216 10 4 15 19 15 43 0 31 3 35 18 29 9 -4 46 -19 82
-32z m136 -162 c-10 -34 -26 -175 -26 -232 0 -60 -8 -71 -30 -43 -8 8 -34 27
-59 41 -25 15 -47 27 -49 28 -1 1 25 54 58 117 56 106 62 115 85 110 18 -3 24
-9 21 -21z m1843 -231 c23 -108 6 -171 -55 -196 -44 -19 -234 -38 -290 -29
-40 6 -44 9 -53 43 -28 106 -41 161 -41 170 0 5 57 12 133 15 82 3 160 13 207
25 41 11 78 20 82 21 3 1 11 -22 17 -49z m-776 -187 c-108 -130 -138 -202
-123 -283 5 -28 17 -64 25 -80 16 -32 69 -70 95 -70 8 0 -4 9 -27 19 -81 38
-76 88 12 110 100 25 145 4 145 -70 0 -33 -4 -42 -21 -46 -15 -4 -17 -8 -8
-14 23 -14 -41 -31 -92 -24 -101 14 -153 83 -154 205 0 52 6 76 28 120 36 71
123 180 143 180 11 0 4 -14 -23 -47z m611 -293 c36 -13 33 -21 -18 -48 -89
-48 -104 -91 -33 -95 37 -3 65 -17 32 -17 -10 0 -27 -7 -37 -17 -20 -18 -25
-4 -6 15 19 19 -12 15 -34 -5 -20 -18 -25 -4 -6 15 19 19 -12 15 -34 -5 -10
-9 -18 -11 -18 -5 0 6 10 18 22 26 25 18 17 21 -13 6 -16 -9 -19 -7 -19 10 0
26 25 77 53 108 22 24 67 29 111 12z m233 -156 c14 -19 18 -66 6 -78 -5 -4 -8
-13 -8 -19 0 -7 -16 -20 -35 -30 -29 -16 -51 -18 -135 -13 -114 6 -316 53
-323 75 -4 11 1 12 19 7 58 -17 251 -56 272 -55 18 1 19 2 3 6 -14 4 -17 11
-12 36 13 63 72 100 150 93 33 -2 54 -9 63 -22z"/>
<path d="M2755 2999 c-44 -5 -91 -11 -104 -14 -22 -6 -22 -7 -7 -24 31 -34 16
-45 -17 -13 -20 20 -40 30 -52 27 -11 -2 -37 -7 -58 -10 -21 -3 -35 -10 -32
-15 3 -5 -4 -32 -16 -61 -17 -45 -19 -60 -10 -95 6 -24 11 -54 11 -68 0 -31
-7 -30 100 -11 47 8 86 15 87 15 1 0 7 16 13 35 6 19 21 42 33 50 l21 15 -20
27 c-32 44 -36 53 -24 53 5 0 23 -18 38 -40 20 -30 34 -40 57 -41 l30 -1 -30
-7 c-51 -13 -73 -29 -85 -66 -16 -49 -3 -116 35 -180 19 -30 30 -55 25 -55
-15 0 -69 95 -81 143 -6 26 -16 47 -23 47 -29 0 -171 -31 -181 -40 -9 -8 -14
-6 -18 5 -9 23 -68 55 -103 55 -49 0 -94 -62 -94 -129 0 -42 27 -124 54 -164
13 -19 21 -39 18 -43 -4 -3 3 -2 15 5 25 13 36 14 30 4 -3 -5 13 -8 36 -8 48
0 59 -20 32 -61 -16 -25 -112 -77 -126 -69 -4 3 -10 -6 -13 -19 -7 -30 -34
-40 -69 -27 -22 9 -24 7 -20 -10 4 -12 11 -18 22 -15 9 3 57 12 106 20 l90 14
24 -31 c73 -94 148 -137 263 -151 77 -10 155 13 202 58 46 43 48 82 6 129 -35
40 -38 67 -10 92 38 34 23 49 -17 18 -21 -17 -44 -33 -51 -37 -20 -12 -243
-56 -277 -55 -16 0 8 9 55 19 155 33 152 32 166 73 7 21 22 50 33 65 10 15 24
45 30 67 16 60 37 85 72 85 16 0 29 5 29 10 0 29 111 -6 159 -51 18 -17 20
-24 10 -35 -7 -9 -20 -12 -32 -8 -14 4 -18 2 -15 -7 3 -8 18 -14 33 -14 23 0
35 9 57 41 22 33 35 43 66 47 22 4 48 17 62 32 21 22 22 27 10 50 -17 32 -28
32 -32 -2 -4 -35 -40 -43 -70 -17 -25 23 -18 71 14 95 21 16 21 17 2 43 -19
27 -20 27 -104 22 -47 -3 -116 -9 -154 -13 -46 -4 -67 -3 -63 4 4 6 44 13 89
17 46 4 108 9 138 13 l55 6 -65 59 c-36 32 -97 81 -137 108 -78 54 -76 54
-218 39z m96 -268 c33 -37 59 -96 59 -135 0 -10 -8 -16 -23 -16 -13 0 -45 -11
-70 -24 -43 -21 -48 -22 -62 -6 -20 22 -19 30 3 30 28 0 42 20 42 61 0 51 -34
92 -71 87 -29 -5 -29 2 0 35 25 30 79 16 122 -32z m-462 -57 c40 -24 70 -73
82 -138 5 -31 9 -62 7 -68 -2 -6 -21 -12 -42 -14 -21 -2 -53 -12 -72 -23 l-34
-20 -15 29 c-19 36 -19 44 -1 37 7 -3 23 1 35 9 51 36 6 155 -54 140 -20 -5
-23 -3 -18 11 18 52 62 67 112 37z"/>
<path d="M1970 2856 c-29 -10 -41 -23 -68 -76 -28 -57 -31 -72 -27 -122 5 -50
3 -59 -17 -79 -13 -12 -16 -20 -8 -17 8 3 60 16 115 29 55 12 102 24 104 26 2
1 -4 14 -14 29 -16 24 -21 26 -65 20 -42 -6 -51 -4 -59 12 -14 27 1 73 44 134
20 27 35 51 33 53 -2 1 -19 -3 -38 -9z"/>
<path d="M1942 2571 c-108 -27 -145 -41 -108 -41 72 0 201 -141 198 -217 -2
-52 -18 -66 -67 -59 -109 18 -138 37 -95 64 24 14 27 64 6 81 -8 7 -27 11 -42
9 -26 -3 -28 -7 -29 -45 -1 -24 -8 -50 -18 -61 -16 -18 -16 -20 3 -37 36 -33
20 -55 -40 -55 -33 0 -60 -31 -60 -68 0 -23 1 -23 73 -16 86 8 89 9 81 38 -5
23 16 56 37 56 22 0 145 -34 156 -43 12 -9 108 -2 140 10 21 8 15 43 -13 80
-38 51 -54 97 -54 160 0 62 -29 173 -45 172 -5 0 -61 -13 -123 -28z"/>
<path d="M2295 2191 c-80 -16 -80 -16 -77 -46 7 -61 64 -340 71 -348 4 -4 103
11 219 34 l210 42 -1 41 c-2 37 1 42 30 56 50 23 40 37 -29 45 -109 13 -164
40 -248 122 -41 40 -79 73 -85 72 -5 -1 -46 -9 -90 -18z"/>
<path d="M1747 2113 c-38 -3 -48 -8 -45 -21 5 -23 66 -62 99 -62 20 0 31 -7
41 -27 7 -14 19 -28 26 -31 10 -3 12 13 10 70 l-3 73 -40 1 c-22 0 -62 -1 -88
-3z"/>
<path d="M1741 1669 c-18 -110 -20 -143 -11 -155 22 -26 28 -15 41 76 6 50 15
90 19 90 3 0 19 -54 35 -121 20 -82 35 -123 46 -130 15 -8 21 6 48 121 36 152
37 156 12 170 -23 12 -23 10 -42 -98 -7 -40 -16 -69 -19 -65 -4 4 -18 54 -30
111 -20 86 -28 106 -50 122 l-26 19 -23 -140z"/>
<path d="M1986 1675 c-10 -27 -7 -32 25 -45 24 -10 29 -18 25 -34 -37 -147
-48 -219 -35 -227 8 -5 17 -9 21 -9 3 0 19 54 34 120 16 72 32 119 38 117 51
-19 56 -19 56 6 0 23 -14 31 -146 84 -6 2 -14 -3 -18 -12z"/>
<path d="M2185 1599 c-2 -8 -16 -66 -30 -129 -14 -63 -28 -122 -31 -131 -4
-13 9 -21 55 -37 l59 -20 6 21 c9 34 8 36 -29 43 -36 6 -41 16 -29 62 6 20 11
22 37 16 20 -4 32 -2 38 7 16 25 9 37 -22 44 -28 6 -31 10 -25 38 3 17 8 32 9
33 2 2 20 -1 41 -7 42 -12 41 -12 50 17 5 18 0 22 -46 34 -29 7 -59 15 -65 17
-7 3 -15 -1 -18 -8z"/>
<path d="M2362 1543 c-8 -16 -72 -260 -72 -275 0 -3 8 -8 19 -11 16 -4 21 6
36 59 9 35 23 64 29 64 7 0 23 -12 37 -26 19 -20 24 -37 25 -77 0 -44 3 -52
21 -55 16 -2 22 4 26 27 7 35 -1 90 -16 109 -8 10 -3 20 21 39 26 20 32 31 32
64 0 47 -23 73 -77 88 -53 15 -71 14 -81 -6z"/>
<path d="M2561 1373 c-12 -71 -25 -136 -27 -145 -3 -10 3 -19 16 -23 12 -4 23
-5 26 -3 2 3 11 45 20 94 8 49 18 96 21 104 3 8 24 -37 47 -100 34 -91 47
-116 63 -118 19 -3 23 8 47 110 42 182 41 175 16 183 -12 4 -24 5 -26 2 -3 -3
-12 -48 -21 -101 -16 -98 -26 -116 -37 -71 -4 14 -20 63 -37 110 -29 78 -33
85 -58 85 -27 0 -28 -1 -50 -127z"/>
<path d="M2851 1419 c-21 -110 -41 -222 -41 -236 0 -11 16 -13 77 -11 65 3 78
6 81 21 3 14 -5 17 -52 17 l-56 0 6 28 c10 41 12 42 60 42 40 0 44 2 44 25 0
23 -4 25 -40 25 -43 0 -45 3 -34 60 7 32 7 32 60 28 48 -4 53 -3 57 19 4 20 0
23 -28 23 -18 0 -53 3 -78 6 l-45 6 -11 -53z"/>
<path d="M3140 1463 c-43 -3 -78 -9 -82 -16 -16 -25 -8 -37 26 -37 l33 0 -24
-102 c-13 -57 -26 -111 -29 -121 -5 -15 -1 -18 22 -15 27 3 29 7 54 123 26
118 27 120 56 123 16 2 32 9 36 15 12 19 9 37 -4 35 -7 -1 -47 -4 -88 -5z"/>
</g>
</svg>
