<?xml version="1.0" standalone="no"?>
<!DOCTYPE svg PUBLIC "-//W3C//DTD SVG 20010904//EN"
 "http://www.w3.org/TR/2001/REC-SVG-20010904/DTD/svg10.dtd">
<svg version="1.0" xmlns="http://www.w3.org/2000/svg"
 width="398.000000pt" height="398.000000pt" viewBox="0 0 398.000000 398.000000"
 preserveAspectRatio="xMidYMid meet">

<g transform="translate(0.000000,398.000000) scale(0.100000,-0.100000)"
fill="#000000" stroke="none">
<path d="M1597 3784 c-2 -3 -58 -7 -123 -10 -66 -2 -131 -7 -146 -10 -15 -3
-44 -7 -65 -9 -204 -18 -421 -73 -465 -117 -11 -11 -25 -17 -32 -15 -7 3 -23
-1 -37 -9 -13 -7 -18 -13 -11 -14 6 0 12 -5 12 -11 0 -6 -8 -8 -19 -4 -22 7
-53 -4 -45 -16 3 -5 -1 -9 -8 -9 -22 0 -114 -81 -169 -150 -100 -124 -160
-286 -178 -482 -17 -178 -18 -227 -4 -233 7 -2 13 -9 13 -14 0 -6 -6 -8 -13
-5 -7 2 -13 -4 -14 -16 -1 -11 4 -20 10 -20 9 0 8 -3 -1 -8 -10 -7 -12 -113
-12 -494 0 -268 2 -492 4 -500 3 -7 7 -72 10 -145 6 -147 15 -267 22 -300 l4
-22 36 24 c20 14 44 25 53 25 9 0 -2 -9 -25 -20 -25 -13 -49 -35 -61 -58 -30
-53 -206 -807 -199 -851 3 -19 17 -46 31 -60 l25 -26 1778 -3 c1253 -2 1788 0
1814 8 44 12 68 50 68 104 0 19 -16 99 -35 178 -19 79 -59 251 -90 383 -33
141 -65 253 -77 273 -12 20 -39 42 -62 53 -23 10 -35 19 -28 19 7 0 30 -9 52
-20 l39 -20 5 53 c4 28 13 185 22 347 8 162 16 306 17 319 1 13 -4 26 -11 28
-7 3 -10 -1 -6 -11 4 -9 1 -16 -6 -16 -7 0 -10 -6 -7 -14 3 -7 2 -17 -2 -22
-4 -5 -23 -68 -42 -141 l-33 -132 -40 5 c-46 5 -56 11 -56 28 0 7 32 136 71
287 39 151 71 283 71 294 1 11 5 25 9 30 7 10 21 67 24 95 0 9 4 21 9 28 4 6
5 16 1 21 -3 5 -1 12 4 15 5 3 7 15 4 26 -3 11 -1 20 4 20 6 0 8 12 5 26 -4
21 -2 25 9 19 12 -8 12 -6 0 8 -7 9 -11 24 -7 32 3 10 2 13 -5 10 -6 -4 -9 -1
-8 6 4 23 -12 329 -22 415 -32 278 -150 483 -354 619 -45 30 -90 55 -99 55 -9
0 -16 4 -16 10 0 5 -7 7 -15 4 -8 -4 -15 -2 -15 4 0 6 -15 14 -32 17 -18 4
-37 11 -43 15 -18 12 -125 42 -183 51 -190 27 -294 39 -427 48 -152 11 -868
15 -878 5z m412 -720 c31 -7 32 -7 9 -18 -13 -6 -25 -20 -27 -31 -4 -25 -30
-44 -58 -45 -35 0 -73 21 -73 41 0 21 -28 39 -60 39 -12 0 -18 5 -15 10 7 11
174 14 224 4z m119 -51 c-10 -2 -28 -2 -40 0 -13 2 -5 4 17 4 22 1 32 -1 23
-4z m-340 -10 c-15 -2 -42 -2 -60 0 -18 2 -6 4 27 4 33 0 48 -2 33 -4z m-75
-48 c-27 -11 -53 -41 -53 -59 0 -2 43 -2 96 1 l96 6 -4 -24 c-4 -34 -42 -49
-123 -49 -95 0 -102 6 -85 65 16 58 33 75 73 75 l32 -1 -32 -14z m511 9 c21
-8 22 -87 1 -107 -35 -36 -184 -31 -210 6 -8 12 -15 25 -15 29 0 5 43 8 95 8
52 0 95 3 95 6 0 16 -24 46 -43 54 -18 7 -15 9 20 9 23 1 48 -2 57 -5z m-373
-21 c13 -16 12 -17 -3 -4 -10 7 -18 15 -18 17 0 8 8 3 21 -13z m-81 -3 c0 -5
-4 -10 -10 -10 -5 0 -10 5 -10 10 0 6 5 10 10 10 6 0 10 -4 10 -10z m-43 -15
c0 -8 -9 -15 -20 -15 -16 0 -17 3 -7 15 7 8 16 15 20 15 3 0 7 -7 7 -15z m103
0 c10 -12 10 -15 -4 -15 -9 0 -16 7 -16 15 0 8 2 15 4 15 2 0 9 -7 16 -15z
m210 5 c0 -5 -5 -10 -11 -10 -5 0 -7 5 -4 10 3 6 8 10 11 10 2 0 4 -4 4 -10z
m118 -9 c3 -8 -1 -12 -9 -9 -7 2 -15 10 -17 17 -3 8 1 12 9 9 7 -2 15 -10 17
-17z m-200 -23 c5 -7 13 -32 17 -55 4 -24 11 -43 16 -43 5 0 9 4 9 9 0 5 18 5
43 -1 57 -13 170 -5 201 16 l26 16 -7 -31 c-6 -31 -50 -119 -59 -119 -3 0 -2
5 2 12 4 7 3 8 -4 4 -7 -4 -12 -14 -12 -22 0 -9 -14 -30 -31 -47 -28 -28 -32
-29 -41 -13 -15 27 -70 46 -135 47 l-58 1 50 17 c51 18 68 42 46 64 -9 9 -11
5 -9 -13 3 -22 -1 -25 -24 -22 -14 2 -29 -2 -33 -7 -8 -14 -52 -14 -61 0 -3 6
-17 8 -30 5 -20 -5 -24 -3 -24 16 0 17 -2 20 -9 9 -15 -23 -3 -36 46 -51 53
-15 52 -16 -31 -25 -42 -5 -65 -13 -82 -30 -22 -23 -23 -23 -54 -4 -17 11 -35
31 -40 45 -6 14 -14 23 -20 19 -15 -9 -40 51 -34 82 l5 28 87 -3 c119 -5 157
8 173 56 6 20 14 40 16 45 7 12 50 8 61 -5z m-852 -170 c77 -58 108 -96 155
-197 27 -58 61 -119 74 -137 40 -53 47 -78 23 -93 -42 -26 -78 -167 -48 -186
6 -4 10 8 10 30 0 44 20 94 49 119 21 19 21 19 21 -5 0 -13 5 -31 10 -39 7
-12 10 -8 10 14 0 23 3 27 12 18 35 -35 38 9 3 50 -21 25 -25 39 -23 77 2 36
7 47 22 49 10 2 23 -3 27 -11 5 -8 29 -42 55 -76 45 -60 46 -63 33 -94 -8 -18
-13 -37 -11 -44 1 -6 -9 -36 -22 -67 -25 -57 -64 -91 -116 -102 -14 -3 -52
-18 -85 -35 -92 -45 -124 -39 -214 42 -82 73 -143 105 -244 125 -84 16 -141
44 -125 60 4 4 59 0 121 -8 63 -9 127 -13 142 -10 22 4 26 2 20 -9 -12 -21 7
0 38 43 15 20 27 40 27 45 0 4 -7 -2 -15 -14 l-15 -21 -72 39 c-40 21 -102 48
-138 60 -36 12 -75 29 -87 37 -24 15 -30 37 -13 47 16 10 172 -32 257 -69 137
-60 144 -48 44 76 -59 74 -66 87 -50 91 10 3 19 13 18 24 0 10 -3 13 -6 5 -12
-30 -40 -32 -87 -6 -49 28 -99 80 -93 98 8 24 41 15 126 -34 70 -41 102 -67
156 -130 66 -77 93 -94 131 -79 18 7 18 8 -2 8 -18 1 -25 14 -44 85 -21 79
-26 87 -77 131 -60 52 -88 89 -78 105 10 17 51 11 81 -12z m2564 -28 c0 -5 -4
-10 -10 -10 -5 0 -10 5 -10 10 0 6 5 10 10 10 6 0 10 -4 10 -10z m-1795 -135
c30 -13 35 -18 25 -30 -24 -29 -79 -13 -93 28 -8 22 17 23 68 2z m175 -5 c0
-25 -35 -44 -66 -36 -30 8 -31 28 -1 42 37 19 67 17 67 -6z m-232 -152 c28
-17 48 -49 112 -179 98 -199 152 -334 148 -368 -3 -22 -9 -26 -38 -29 -35 -3
-35 -2 -54 58 -10 33 -23 63 -29 67 -9 6 -7 -17 9 -99 4 -20 2 -28 -9 -28 -10
0 -16 17 -21 59 -9 78 -48 239 -80 326 -14 38 -24 71 -22 73 2 1 25 -33 51
-78 26 -44 49 -80 51 -80 10 0 -143 267 -157 276 -10 6 -12 24 -3 24 4 0 22
-10 42 -22z m262 8 c0 -5 57 -391 71 -485 11 -68 10 -75 -6 -88 -39 -27 -42
-18 -49 145 -3 86 -13 216 -21 287 -18 157 -17 145 -5 145 6 0 10 -2 10 -4z
m-64 -71 l-7 -34 -35 24 c-20 13 -44 27 -55 30 -10 4 -19 10 -19 15 0 11 114
18 119 7 1 -4 0 -23 -3 -42z m-42 -109 c38 -60 56 -99 55 -120 0 -26 -10 -11
-59 84 -51 100 -70 144 -56 129 2 -2 29 -44 60 -93z m-1287 -336 c62 -201 113
-372 113 -381 0 -17 -50 -34 -61 -21 -3 4 -34 102 -70 218 -35 117 -68 209
-73 206 -5 -3 -6 0 -2 6 4 6 -14 79 -39 162 -38 123 -44 154 -34 166 7 8 22
14 33 12 18 -3 35 -51 133 -368z m1391 70 c0 -24 0 -24 -13 5 -10 20 -14 67
-13 145 l0 115 14 -120 c7 -66 12 -131 12 -145z m82 -172 c0 -15 -13 -17 -112
-16 -80 1 -100 4 -68 8 l45 7 -37 1 c-21 1 -38 5 -38 10 0 4 47 7 105 7 92 0
105 -2 105 -17z m-40 -58 c0 -5 -11 -10 -25 -10 -14 0 -25 5 -25 10 0 6 11 10
25 10 14 0 25 -4 25 -10z m50 -44 c0 -2 3 -11 6 -20 5 -14 -7 -16 -99 -16 -96
0 -105 2 -110 20 -5 19 0 20 99 20 57 0 104 -2 104 -4z m-105 -143 c3 -43 10
-96 15 -118 5 -22 7 -41 5 -44 -6 -5 -92 178 -99 212 -6 26 -5 27 33 27 l39 0
7 -77z m55 35 c0 -32 30 -152 36 -145 2 2 -3 35 -11 73 -20 96 -20 106 7 102
17 -2 24 -12 29 -38 34 -171 43 -208 55 -232 14 -27 13 -28 -9 -28 -14 0 -39
3 -56 6 -34 7 -40 20 -65 154 -28 144 -28 140 -6 140 16 0 20 -7 20 -32z m775
-8 c25 -26 27 -33 15 -40 -11 -7 -4 -14 33 -30 64 -29 61 -44 -11 -47 -65 -3
-86 -20 -79 -65 5 -35 0 -35 -52 2 -55 40 -59 54 -24 84 29 24 45 49 63 99 12
34 20 34 55 -3z m123 -192 c20 -23 20 -23 2 -46 -17 -20 -22 -21 -42 -10 -13
7 -24 14 -26 15 -6 3 29 63 37 63 4 0 17 -10 29 -22z m52 -32 c0 -2 -8 -10
-17 -17 -16 -13 -17 -12 -4 4 13 16 21 21 21 13z m1 -59 c-11 -12 -21 -16 -21
-10 0 6 7 13 15 17 8 3 15 13 16 23 0 12 2 14 6 4 3 -7 -4 -23 -16 -34z m-38
8 c-3 -9 -8 -14 -10 -11 -3 3 -2 9 2 15 9 16 15 13 8 -4z m-265 -82 c-428 -2
-1128 -2 -1555 0 -428 1 -78 2 777 2 855 0 1205 -1 778 -2z m-2220 -200 c-10
-2 -26 -2 -35 0 -10 3 -2 5 17 5 19 0 27 -2 18 -5z m955 0 c-13 -2 -33 -2 -45
0 -13 2 -3 4 22 4 25 0 35 -2 23 -4z m215 -55 l-2 -63 -3 57 c-3 43 -8 58 -21
61 -12 3 -11 5 6 6 21 1 22 -2 20 -61z m320 55 c-21 -2 -55 -2 -75 0 -21 2 -4
4 37 4 41 0 58 -2 38 -4z m365 0 c-13 -2 -33 -2 -45 0 -13 2 -3 4 22 4 25 0
35 -2 23 -4z m480 0 c-18 -2 -48 -2 -65 0 -18 2 -4 4 32 4 36 0 50 -2 33 -4z
m322 -9 c13 -8 26 -23 29 -32 5 -15 5 -15 -6 -2 -7 9 -24 24 -38 33 -31 21
-18 23 15 1z m252 9 c-20 -2 -52 -2 -70 0 -17 2 0 4 38 4 39 0 53 -2 32 -4z
m-2526 -20 c13 -16 12 -17 -3 -4 -10 7 -18 15 -18 17 0 8 8 3 21 -13z m-374
-25 c-3 -8 -6 -5 -6 6 -1 11 2 17 5 13 3 -3 4 -12 1 -19z m1290 -20 c-3 -7 -5
-2 -5 12 0 14 2 19 5 13 2 -7 2 -19 0 -25z m-1300 -20 c-3 -8 -6 -5 -6 6 -1
11 2 17 5 13 3 -3 4 -12 1 -19z m284 -2 c-7 -8 -16 -27 -21 -43 -6 -21 -8 -23
-9 -8 -1 20 24 65 36 65 3 0 0 -6 -6 -14z m304 7 c-22 -3 -43 -10 -47 -16 -5
-8 -8 -6 -8 6 0 14 8 17 48 15 47 -1 47 -1 7 -5z m1238 -145 c7 -4 31 -8 55
-8 l42 0 0 -45 0 -45 -51 0 -50 0 7 -145 7 -145 -35 0 -35 0 -7 77 c-3 42 -6
127 -6 189 0 115 6 131 40 114 13 -7 15 4 14 73 -1 78 -1 78 3 12 2 -39 9 -73
16 -77z m287 137 c19 -22 8 -25 -12 -3 -10 10 -14 18 -9 18 5 0 14 -7 21 -15z
m531 -2 c13 -16 12 -17 -3 -4 -17 13 -22 21 -14 21 2 0 10 -8 17 -17z m-2234
-15 c-3 -8 -6 -5 -6 6 -1 11 2 17 5 13 3 -3 4 -12 1 -19z m1340 -35 c-3 -10
-5 -2 -5 17 0 19 2 27 5 18 2 -10 2 -26 0 -35z m651 22 c-3 -3 -9 2 -12 12 -6
14 -5 15 5 6 7 -7 10 -15 7 -18z m-2451 -192 c-44 -185 -45 -203 -7 -203 32 0
51 38 77 160 15 68 29 118 31 111 3 -9 10 -7 25 6 11 10 17 12 13 6 -4 -7 -2
-13 3 -13 6 0 11 10 12 23 0 12 3 17 5 12 2 -6 -9 -77 -25 -158 -31 -159 -56
-214 -108 -241 -43 -21 -91 -9 -114 28 -10 17 -19 42 -19 56 0 42 63 301 71
289 4 -6 11 -9 17 -5 6 3 12 0 15 -6 2 -7 12 23 23 67 10 44 20 73 21 65 2 -8
-17 -97 -40 -197z m575 129 c-5 -22 -7 -43 -4 -47 3 -3 28 -5 55 -5 l50 0 -7
-31 c-3 -17 -6 -40 -6 -50 0 -16 -8 -19 -54 -19 l-54 0 -11 -63 c-17 -101 -19
-97 49 -97 l60 0 0 -60 0 -60 -101 0 -101 0 6 27 c3 16 17 109 31 208 26 175
35 217 35 162 0 -17 5 -27 14 -27 13 0 34 66 37 118 1 14 2 15 6 1 2 -9 0 -34
-5 -57z m2195 46 c-3 -8 -6 -5 -6 6 -1 11 2 17 5 13 3 -3 4 -12 1 -19z m130
-10 c-3 -7 -5 -2 -5 12 0 14 2 19 5 13 2 -7 2 -19 0 -25z m-1897 -145 c-7 -87
-15 -194 -19 -238 l-6 -80 -32 -3 c-40 -4 -40 -10 -18 227 15 162 23 211 24
162 1 -16 5 -21 16 -17 10 4 15 -1 16 -17 2 -33 18 52 18 97 1 22 4 37 7 34 3
-4 0 -77 -6 -165z m1210 52 c8 0 17 9 20 20 8 26 40 -202 40 -278 0 -51 -4
-62 -29 -88 -58 -58 -141 -24 -169 67 -22 73 -40 285 -24 283 24 -4 32 4 32
33 0 61 8 22 26 -127 15 -128 21 -153 40 -172 27 -27 52 -21 60 13 3 13 -3 95
-15 183 -23 171 -26 223 -7 126 8 -42 16 -60 26 -60z m570 79 c0 -2 -16 -4
-35 -4 -19 0 -35 4 -35 8 0 4 16 6 35 4 19 -2 35 -6 35 -8z m-1534 -74 c31 0
34 2 36 33 l1 32 4 -31 c4 -32 37 -54 47 -30 7 17 5 -336 -2 -359 -5 -14 -18
-21 -41 -23 l-34 -4 5 142 5 141 -31 -3 -31 -3 -6 -105 c-4 -58 -7 -120 -8
-137 -1 -31 -3 -33 -37 -30 l-36 2 6 70 c3 39 9 126 12 195 4 69 9 119 11 113
3 -9 10 -10 23 -3 13 7 20 6 23 -3 3 -6 7 11 8 38 l2 50 4 -42 c4 -42 5 -43
39 -43z m-916 8 c16 -12 27 -25 24 -29 -3 -5 1 -6 9 -4 7 3 22 -4 33 -16 40
-44 12 -238 -44 -299 -46 -52 -130 -52 -157 0 -16 30 -19 95 -9 149 6 27 11
31 39 31 33 0 33 0 25 -36 -10 -45 3 -84 28 -84 33 0 52 33 58 101 l6 65 -41
29 c-45 31 -61 53 -60 82 0 16 1 16 9 -2 5 -11 9 -14 9 -7 1 7 6 10 11 7 6 -3
10 0 10 7 0 9 3 9 10 -2 5 -8 10 -11 10 -7 0 4 10 3 23 -3 17 -9 16 -6 -5 10
-19 15 -28 30 -27 48 2 24 2 25 6 4 2 -12 17 -32 33 -44z m1707 40 c-3 -8 -6
-5 -6 6 -1 11 2 17 5 13 3 -3 4 -12 1 -19z m930 -36 c51 -3 53 -4 63 -40 18
-68 16 -72 -41 -72 l-52 0 7 -42 c4 -24 11 -60 17 -81 9 -33 14 -38 32 -34 12
3 42 2 66 -1 44 -7 45 -8 56 -59 l12 -52 -51 -6 c-28 -4 -73 -5 -101 -3 l-49
3 -38 185 c-36 182 -44 235 -29 196 5 -13 10 -16 15 -8 3 6 13 9 21 6 8 -4 12
-11 8 -17 -3 -6 -1 -7 5 -3 9 5 9 13 2 26 -5 10 -9 29 -9 42 1 19 3 17 8 -7 6
-28 9 -30 58 -33z m-600 26 c-3 -8 -6 -5 -6 6 -1 11 2 17 5 13 3 -3 4 -12 1
-19z m-2400 -10 c-3 -8 -6 -5 -6 6 -1 11 2 17 5 13 3 -3 4 -12 1 -19z m2670 0
c-3 -8 -6 -5 -6 6 -1 11 2 17 5 13 3 -3 4 -12 1 -19z m-2530 -10 c-3 -8 -6 -5
-6 6 -1 11 2 17 5 13 3 -3 4 -12 1 -19z m2361 -2 c-4 -19 -1 -22 16 -18 12 3
25 10 29 16 11 15 -2 -54 -15 -81 -9 -19 -2 -45 46 -160 31 -76 56 -142 56
-146 0 -5 -14 -7 -31 -5 -31 3 -33 7 -83 135 -38 100 -55 133 -68 133 -23 0
-22 -14 1 -157 l18 -113 -32 0 -32 0 -27 196 c-16 107 -25 198 -22 201 3 4 6
-5 6 -18 0 -17 3 -20 9 -10 5 7 13 11 19 7 6 -3 13 0 15 6 3 8 6 6 6 -4 1 -13
9 -18 29 -18 32 0 52 16 52 42 0 10 3 18 6 18 4 0 4 -11 2 -24z m-1025 -22 c7
19 8 19 23 0 9 -10 13 -13 9 -6 -9 18 19 25 70 18 l45 -7 0 -50 0 -49 -60 0
-61 0 3 -77 3 -78 68 -3 67 -3 0 -58 0 -58 -95 -1 -95 -1 1 207 c1 114 4 194
8 177 6 -26 8 -27 14 -11z m1173 1 c9 8 19 15 23 15 4 0 17 -52 29 -116 26
-132 37 -161 65 -170 26 -8 39 12 34 54 -3 32 -2 33 32 30 l36 -3 3 -66 c4
-84 -19 -119 -77 -119 -75 0 -111 52 -139 200 -17 92 -36 225 -25 177 4 -15 6
-15 19 -2z"/>
<path d="M1768 2883 c6 -2 18 -2 25 0 6 3 1 5 -13 5 -14 0 -19 -2 -12 -5z"/>
<path d="M1140 2355 c-17 -10 -20 -14 -9 -15 9 0 22 7 29 15 15 18 12 18 -20
0z"/>
<path d="M1163 2253 c-41 -53 -104 -156 -98 -161 10 -10 38 24 66 82 17 34 36
68 43 76 17 20 28 40 22 40 -2 0 -17 -17 -33 -37z"/>
<path d="M2063 1673 c9 -2 23 -2 30 0 6 3 -1 5 -18 5 -16 0 -22 -2 -12 -5z"/>
<path d="M2977 1383 c-4 -3 -7 -11 -7 -17 0 -6 5 -5 12 2 6 6 9 14 7 17 -3 3
-9 2 -12 -2z"/>
<path d="M2393 773 c15 -2 37 -2 50 0 12 2 0 4 -28 4 -27 0 -38 -2 -22 -4z"/>
<path d="M1083 773 c15 -2 39 -2 55 0 15 2 2 4 -28 4 -30 0 -43 -2 -27 -4z"/>
<path d="M1723 773 c9 -2 25 -2 35 0 9 3 1 5 -18 5 -19 0 -27 -2 -17 -5z"/>
<path d="M3686 1955 c4 -8 8 -15 10 -15 2 0 4 7 4 15 0 8 -4 15 -10 15 -5 0
-7 -7 -4 -15z"/>
</g>
</svg>
