<?xml version="1.0" standalone="no"?>
<!DOCTYPE svg PUBLIC "-//W3C//DTD SVG 20010904//EN"
 "http://www.w3.org/TR/2001/REC-SVG-20010904/DTD/svg10.dtd">
<svg version="1.0" xmlns="http://www.w3.org/2000/svg"
 width="398.000000pt" height="398.000000pt" viewBox="0 0 398.000000 398.000000"
 preserveAspectRatio="xMidYMid meet">
<metadata>
Created by potrace 1.15, written by Peter Selinger 2001-2017
</metadata>
<g transform="translate(0.000000,398.000000) scale(0.100000,-0.100000)"
fill="#000000" stroke="none">
<path d="M1658 3741 c4 -13 3 -14 -9 -5 -25 19 -103 17 -384 -12 -84 -8 -187
-25 -250 -40 -94 -23 -206 -65 -199 -76 3 -5 0 -9 -7 -7 -26 3 -44 -2 -63 -16
-16 -12 -17 -18 -8 -27 9 -9 12 -9 12 0 0 7 5 12 10 12 6 0 10 -4 10 -9 0 -14
-28 -21 -52 -12 -43 16 -186 -117 -258 -238 -17 -30 -32 -63 -33 -73 -1 -10
-5 -18 -9 -18 -11 0 -47 -123 -63 -219 -21 -120 -30 -408 -29 -911 2 -391 22
-861 38 -877 3 -3 20 0 38 6 22 8 172 11 485 11 l453 0 0 22 c0 16 3 19 8 10
10 -14 30 -19 121 -28 l63 -7 -7 164 c-8 178 3 212 16 49 4 -56 13 -125 19
-155 l11 -55 500 0 c274 0 499 2 499 5 0 3 -13 32 -29 63 l-29 58 23 0 c13 0
21 -4 19 -8 -3 -4 1 -8 9 -8 8 0 18 -7 21 -16 3 -8 10 -13 15 -10 5 3 11 -3
14 -15 5 -18 3 -18 -11 -7 -11 8 -10 4 3 -11 11 -13 19 -26 17 -30 -7 -14 56
-19 282 -20 l239 -1 -7 63 c-5 43 -4 57 4 47 5 -8 10 -36 10 -62 l0 -48 204 0
c113 0 216 -4 230 -10 23 -8 26 -7 30 23 10 70 24 399 17 423 -6 24 -8 20 -25
-30 l-17 -57 -47 7 c-26 3 -51 10 -56 15 -5 4 22 133 64 299 40 160 74 299 75
308 1 9 5 30 9 45 11 36 14 357 4 351 -5 -3 -16 0 -25 6 -17 11 -17 11 0 6 10
-3 20 0 23 8 13 33 -17 368 -41 463 -31 124 -99 261 -165 335 -66 74 -182 161
-192 145 -5 -8 -8 -7 -8 4 0 21 -31 34 -41 18 -5 -8 -15 -3 -33 16 -14 15 -26
24 -26 19 0 -5 -4 -4 -8 2 -10 16 -140 57 -157 50 -8 -3 -15 -2 -15 3 0 15
-63 22 -72 9 -6 -10 -8 -10 -8 1 0 7 -6 11 -15 7 -8 -3 -15 -1 -15 4 0 5 -8 9
-17 9 -10 1 -68 7 -130 15 -185 24 -462 37 -760 35 -254 -2 -281 -3 -275 -18z
m484 -175 c102 -45 184 -133 239 -253 16 -35 53 -152 83 -260 30 -109 68 -241
85 -293 25 -79 27 -91 11 -70 -35 45 -89 163 -130 288 -43 127 -51 193 -11 83
37 -103 35 -61 -4 76 -39 138 -49 158 -133 276 -57 80 -97 116 -166 154 -54
29 -40 29 26 -1z m-113 -502 c23 -7 22 -7 -9 -20 -23 -10 -30 -18 -26 -31 4
-13 -2 -22 -21 -30 -32 -16 -79 -17 -88 -3 -3 6 -16 10 -28 10 -15 0 -18 3 -9
8 22 15 2 41 -36 47 -21 4 -44 8 -52 9 -8 1 5 8 30 14 44 11 192 8 239 -4z
m-296 -104 c-41 -9 -63 -27 -63 -51 0 -26 13 -24 25 3 12 26 35 36 35 15 0 -9
-8 -18 -17 -20 -10 -3 19 -5 64 -6 76 -1 81 -2 76 -21 -10 -37 -42 -50 -123
-50 -94 0 -105 6 -96 55 15 80 20 85 78 84 47 -1 50 -2 21 -9z m506 -12 c11
-29 3 -84 -14 -98 -18 -15 -114 -24 -159 -16 -38 7 -66 29 -66 52 0 8 8 14 18
15 10 0 12 3 5 6 -19 7 -16 21 8 34 19 10 21 9 17 -9 -5 -17 1 -20 40 -26 60
-8 102 -8 102 2 -1 15 -27 42 -51 51 -20 8 -14 10 34 10 51 1 58 -2 66 -21z
m-270 -75 c6 -21 11 -44 11 -51 0 -7 4 -11 9 -8 4 3 35 1 67 -4 80 -14 171 -3
197 23 l20 20 -7 -54 c-4 -31 -18 -70 -33 -93 -20 -31 -22 -40 -11 -47 9 -6 9
-9 1 -9 -6 0 -15 5 -18 10 -3 6 -18 -3 -32 -20 -24 -28 -63 -41 -63 -20 0 26
-61 40 -170 40 -123 0 -174 -14 -190 -52 -5 -13 -9 -18 -9 -13 -1 6 -16 19
-33 29 -18 10 -46 33 -61 50 -18 19 -27 24 -23 13 3 -10 2 -16 -3 -13 -5 3 -8
33 -7 67 l1 60 111 2 c94 2 115 5 133 21 12 11 21 25 21 33 0 31 21 53 50 53
25 0 30 -5 39 -37z m-829 -169 c56 -42 66 -56 112 -153 28 -58 65 -126 83
-151 45 -64 48 -84 18 -112 -32 -29 -53 -77 -53 -123 0 -51 16 -43 23 11 3 34
13 55 36 77 29 29 31 30 49 14 17 -16 42 -23 42 -12 0 2 -11 21 -25 42 -20 29
-25 47 -23 83 3 39 6 45 25 45 26 0 123 -128 123 -162 0 -36 -51 -155 -79
-186 -15 -17 -48 -34 -81 -44 -30 -8 -67 -24 -82 -34 -67 -48 -137 -37 -215
34 -86 79 -148 113 -228 127 -84 15 -142 37 -149 55 -8 23 3 24 99 9 126 -19
178 -18 206 5 l23 19 -100 50 c-55 28 -118 55 -141 61 -22 6 -53 21 -67 32
-24 19 -26 23 -13 37 13 13 24 12 94 -3 43 -9 112 -32 153 -50 92 -41 130 -51
130 -35 0 11 -61 92 -117 157 -15 17 -47 40 -69 52 -46 22 -104 76 -104 95 0
19 21 35 39 29 9 -3 53 -28 97 -54 59 -36 100 -70 149 -126 37 -43 72 -79 76
-81 19 -8 21 34 5 102 -16 68 -19 73 -77 120 -64 52 -84 79 -75 102 10 26 54
14 116 -32z m676 -291 c34 -16 44 -34 119 -188 98 -203 160 -357 152 -379 -5
-13 -23 -16 -85 -16 l-79 0 -7 43 c-33 220 -92 439 -137 513 -10 17 -16 34
-12 37 9 9 7 9 49 -10z m286 -74 c28 -119 57 -286 68 -393 11 -109 9 -116 -41
-116 l-26 0 -7 143 c-4 78 -14 205 -22 282 -17 170 -17 168 -2 163 7 -3 21
-38 30 -79z m-1534 -68 c12 -7 227 -675 239 -741 4 -21 -1 -27 -28 -37 -32
-12 -54 -7 -54 12 0 6 -11 44 -23 85 -80 259 -104 330 -113 330 -6 0 -7 5 -4
11 9 14 -15 100 -25 94 -5 -3 -6 3 -3 13 2 10 -1 31 -8 47 -15 37 -15 37 -30
107 -10 46 -10 59 0 72 15 18 29 20 49 7z m1906 -173 c79 -135 141 -219 250
-341 67 -75 96 -115 96 -133 0 -32 -31 -93 -61 -119 -21 -19 -21 -17 4 26 33
56 34 76 3 117 l-23 32 -6 -46 c-7 -68 -22 -72 -24 -6 -2 74 -18 110 -99 224
-62 87 -204 318 -204 332 0 17 14 -2 64 -86z m-274 -520 c7 -40 25 -115 40
-165 l27 -93 -51 0 c-29 0 -59 6 -68 13 -16 12 -37 86 -57 201 -18 100 -17
104 32 109 23 2 47 4 54 5 7 1 16 -27 23 -70z m-123 -30 c11 -77 22 -129 39
-190 3 -10 1 -18 -4 -18 -11 0 -129 232 -138 273 l-6 28 48 -3 48 -3 13 -87z
m813 37 c28 -29 32 -38 20 -45 -11 -7 -3 -14 33 -29 66 -28 63 -51 -6 -51 -64
0 -93 -23 -83 -65 8 -33 -6 -32 -55 3 -51 36 -59 60 -26 86 33 27 67 85 67
114 0 30 10 28 50 -13z"/>
<path d="M418 1208 c-66 -17 -92 -60 -126 -205 -170 -707 -165 -685 -151 -728
10 -29 24 -45 49 -58 33 -16 136 -17 1812 -15 l1777 3 28 21 c15 12 32 33 38
48 10 31 9 36 -85 441 -33 143 -68 290 -76 328 -18 74 -44 119 -87 151 l-28
21 -1557 2 c-1010 1 -1570 -2 -1594 -9z m2779 -188 c34 -20 66 -73 78 -127 6
-32 6 -33 -30 -33 -25 0 -37 5 -41 18 -12 42 -31 67 -52 70 -19 3 -22 -1 -22
-31 0 -20 16 -111 35 -204 26 -122 41 -173 56 -188 l20 -20 15 20 c10 13 13
31 9 53 l-6 33 38 -3 c37 -3 38 -4 47 -52 30 -166 -120 -213 -197 -61 -22 43
-89 433 -82 472 6 36 47 73 79 73 11 0 35 -9 53 -20z m-2630 -12 c-54 -219
-107 -482 -99 -490 17 -17 53 3 66 35 7 18 35 132 61 255 l49 222 29 0 30 0
-7 -51 c-17 -126 -87 -452 -105 -488 -11 -21 -35 -51 -52 -66 -27 -22 -39 -26
-68 -20 -48 8 -81 46 -81 93 0 20 26 148 57 285 l58 247 34 0 c29 0 33 -3 28
-22z m363 2 c25 -25 32 -54 28 -111 -3 -42 -4 -44 -38 -47 l-35 -3 3 45 c3 36
0 47 -13 52 -23 9 -55 -25 -65 -71 -11 -48 -6 -60 37 -86 69 -43 75 -56 70
-139 -10 -152 -61 -240 -139 -240 -53 0 -77 15 -94 57 -11 26 -13 50 -8 92 5
31 8 61 8 66 1 6 17 10 36 10 l35 0 0 -54 c0 -41 4 -56 18 -65 27 -17 53 21
62 91 l7 57 -53 47 c-50 43 -53 49 -53 95 -1 65 20 135 53 174 24 29 46 38
114 49 4 0 16 -8 27 -19z m290 -2 c0 -60 -8 -68 -70 -68 l-58 0 -11 -63 c-6
-35 -11 -66 -11 -70 0 -3 21 -7 48 -9 l47 -3 0 -50 0 -50 -54 -5 -55 -5 -12
-60 c-19 -89 -21 -85 45 -85 33 0 62 -3 64 -7 3 -5 2 -34 0 -65 l-5 -58 -100
0 -100 0 6 48 c13 85 76 506 81 540 l6 32 89 0 c87 0 90 -1 90 -22z m380 8 c0
-7 -3 -28 -6 -45 -6 -27 -11 -31 -40 -31 -38 0 -35 11 -54 -245 -6 -77 -13
-173 -17 -212 l-6 -73 -38 0 -39 0 5 43 c9 69 45 454 45 471 0 12 -10 16 -35
16 -35 0 -35 0 -35 45 l0 45 110 0 c87 0 110 -3 110 -14z m119 -100 l-4 -114
30 -5 c16 -3 31 -4 32 -3 1 1 3 54 4 119 l2 117 34 0 33 0 0 -137 c0 -76 -3
-216 -7 -310 l-6 -173 -42 0 -41 0 4 140 5 140 -25 0 c-23 0 -26 -4 -32 -61
-3 -34 -6 -87 -6 -118 0 -88 -6 -101 -47 -101 l-35 0 7 128 c3 70 11 179 16
242 5 63 9 145 9 183 l0 67 36 0 36 0 -3 -114z m389 72 l-3 -43 -62 -3 -63 -3
0 -69 0 -69 58 -3 57 -3 3 -52 3 -53 -60 0 -61 0 0 -75 0 -75 65 0 64 0 6 -33
c4 -19 5 -47 3 -63 l-3 -29 -104 -3 -104 -3 6 83 c4 46 7 185 7 311 l0 227 96
0 95 0 -3 -42z m362 -3 l0 -45 -55 0 c-62 0 -62 1 -49 -94 l7 -46 47 0 48 0 4
-49 c3 -48 2 -50 -26 -55 -16 -3 -40 -6 -53 -6 -23 0 -25 -3 -19 -32 3 -18 6
-80 7 -138 l2 -105 -39 0 -39 0 -7 155 c-3 85 -8 224 -11 308 l-5 152 94 0 94
0 0 -45z m197 20 c45 -30 54 -60 85 -282 31 -216 32 -218 13 -257 -13 -26 -30
-43 -54 -53 -33 -14 -39 -14 -71 3 -39 21 -75 78 -84 133 -3 20 -13 113 -21
206 -18 186 -13 231 28 260 25 18 67 14 104 -10z m275 2 c60 -49 96 -201 64
-269 l-17 -35 60 -146 60 -147 -37 0 -37 0 -50 131 c-45 118 -65 152 -81 136
-5 -5 16 -162 32 -239 5 -26 4 -28 -30 -28 -20 0 -36 4 -36 9 0 4 -6 46 -14
92 -8 46 -27 174 -41 284 -14 110 -28 208 -31 218 -5 15 3 17 63 17 55 -1 73
-5 95 -23z m555 -22 l10 -45 -59 0 c-45 0 -59 -3 -55 -13 2 -7 10 -38 17 -70
l11 -57 53 0 53 0 7 -39 c3 -22 9 -46 12 -55 5 -13 -3 -16 -50 -16 -61 0 -62
-1 -47 -60 5 -19 12 -47 15 -62 6 -26 9 -27 73 -30 l67 -3 12 -55 c7 -30 13
-58 14 -62 0 -5 -47 -8 -105 -8 -58 0 -105 3 -105 6 0 6 -109 559 -117 592 -5
22 -4 22 89 22 l95 0 10 -45z"/>
<path d="M2588 923 c-8 -30 39 -382 52 -398 16 -19 44 -19 59 -1 14 17 -30
379 -49 401 -17 21 -57 19 -62 -2z"/>
</g>
</svg>
